<?xml version="1.0" standalone="no"?>
 <!DOCTYPE svg PUBLIC "-//W3C//DTD SVG 1.1//EN" 
 "http://www.w3.org/Graphics/SVG/1.1/DTD/svg11.dtd"> 
<svg
  xmlns:svg="http://www.w3.org/2000/svg"
  xmlns="http://www.w3.org/2000/svg"
  xmlns:xlink="http://www.w3.org/1999/xlink"
  version="1.1"
  width="297.0022mm" height="210.0072mm" viewBox="0.0000 0.0000 297.0022 210.0072">
<title>SVG Image created as VELETA_PLACA-Edge_Cuts.svg date 2024/10/17 17:40:53 </title>
  <desc>Image generated by PCBNEW </desc>
<g style="fill:#000000; fill-opacity:1.0000;stroke:#000000; stroke-opacity:1.0000;
stroke-linecap:round; stroke-linejoin:round;"
 transform="translate(0 0) scale(1 1)">
</g>
<g style="fill:#000000; fill-opacity:0.0; 
stroke:#000000; stroke-width:0.0000; stroke-opacity:1; 
stroke-linecap:round; stroke-linejoin:round;">
</g>
<g style="fill:#000000; fill-opacity:0.0; 
stroke:#000000; stroke-width:0.1000; stroke-opacity:1; 
stroke-linecap:round; stroke-linejoin:round;">
<path d="M159.8200 128.3700
L159.8200 136.3700
" />
<path d="M159.8200 136.3700
L147.8200 136.3700
" />
<path d="M159.8086 128.3152 A29.9783 29.9783 0.0 1 0 147.8200 128.3700" />
<path d="M147.8200 136.3700
L147.8200 128.3700
" />
<g >
</g>
<g >
</g>
<g >
</g>
<g >
</g>
<g >
</g>
<g >
</g>
<g >
</g>
<g >
</g>
<g >
</g>
<g >
</g>
<g >
</g>
<g >
</g>
<g >
</g>
</g>
<g style="fill:#000000; fill-opacity:0.0; 
stroke:#000000; stroke-width:0.1000; stroke-opacity:1; 
stroke-linecap:round; stroke-linejoin:round;">
<g >
</g>
<g style="fill:#000000; fill-opacity:1.0000; 
stroke:#000000; stroke-width:0.0000; stroke-opacity:1; 
stroke-linecap:round; stroke-linejoin:round;">
<circle cx="163.2700" cy="98.9200" r="0.7500" /> 
</g>
<g style="fill:#000000; fill-opacity:1.0000; 
stroke:#000000; stroke-width:0.0212; stroke-opacity:1; 
stroke-linecap:round; stroke-linejoin:round;">
</g>
<g style="fill:#000000; fill-opacity:1.0000; 
stroke:#000000; stroke-width:0.0000; stroke-opacity:1; 
stroke-linecap:round; stroke-linejoin:round;">
<circle cx="180.2700" cy="98.9200" r="0.7500" /> 
</g>
<g style="fill:#000000; fill-opacity:1.0000; 
stroke:#000000; stroke-width:0.0212; stroke-opacity:1; 
stroke-linecap:round; stroke-linejoin:round;">
</g>
<g >
</g>
<g style="fill:#000000; fill-opacity:1.0000; 
stroke:#000000; stroke-width:0.0212; stroke-opacity:1; 
stroke-linecap:round; stroke-linejoin:round;">
</g>
<g style="fill:#000000; fill-opacity:1.0000; 
stroke:#000000; stroke-width:0.0000; stroke-opacity:1; 
stroke-linecap:round; stroke-linejoin:round;">
<circle cx="144.2450" cy="98.9450" r="0.7500" /> 
</g>
<g style="fill:#000000; fill-opacity:1.0000; 
stroke:#000000; stroke-width:0.0212; stroke-opacity:1; 
stroke-linecap:round; stroke-linejoin:round;">
</g>
<g style="fill:#000000; fill-opacity:1.0000; 
stroke:#000000; stroke-width:0.0000; stroke-opacity:1; 
stroke-linecap:round; stroke-linejoin:round;">
<circle cx="127.2450" cy="98.9450" r="0.7500" /> 
</g>
<g style="fill:#000000; fill-opacity:1.0000; 
stroke:#000000; stroke-width:0.0212; stroke-opacity:1; 
stroke-linecap:round; stroke-linejoin:round;">
</g>
<g >
</g>
<g style="fill:#000000; fill-opacity:1.0000; 
stroke:#000000; stroke-width:0.0212; stroke-opacity:1; 
stroke-linecap:round; stroke-linejoin:round;">
</g>
<g style="fill:#000000; fill-opacity:1.0000; 
stroke:#000000; stroke-width:0.0000; stroke-opacity:1; 
stroke-linecap:round; stroke-linejoin:round;">
<circle cx="133.3100" cy="96.1200" r="0.9995" /> 
</g>
<g style="fill:#000000; fill-opacity:1.0000; 
stroke:#000000; stroke-width:0.0212; stroke-opacity:1; 
stroke-linecap:round; stroke-linejoin:round;">
</g>
<g style="fill:#000000; fill-opacity:1.0000; 
stroke:#000000; stroke-width:0.0000; stroke-opacity:1; 
stroke-linecap:round; stroke-linejoin:round;">
<circle cx="140.9300" cy="96.1200" r="0.9995" /> 
</g>
<g style="fill:#000000; fill-opacity:1.0000; 
stroke:#000000; stroke-width:0.0212; stroke-opacity:1; 
stroke-linecap:round; stroke-linejoin:round;">
</g>
<g >
</g>
<g style="fill:#000000; fill-opacity:1.0000; 
stroke:#000000; stroke-width:0.0212; stroke-opacity:1; 
stroke-linecap:round; stroke-linejoin:round;">
</g>
<g style="fill:#000000; fill-opacity:1.0000; 
stroke:#000000; stroke-width:0.0000; stroke-opacity:1; 
stroke-linecap:round; stroke-linejoin:round;">
<circle cx="156.5700" cy="122.1550" r="0.9995" /> 
</g>
<g style="fill:#000000; fill-opacity:1.0000; 
stroke:#000000; stroke-width:0.0212; stroke-opacity:1; 
stroke-linecap:round; stroke-linejoin:round;">
</g>
<g style="fill:#000000; fill-opacity:1.0000; 
stroke:#000000; stroke-width:0.0000; stroke-opacity:1; 
stroke-linecap:round; stroke-linejoin:round;">
<circle cx="156.5700" cy="114.5350" r="0.9995" /> 
</g>
<g style="fill:#000000; fill-opacity:1.0000; 
stroke:#000000; stroke-width:0.0212; stroke-opacity:1; 
stroke-linecap:round; stroke-linejoin:round;">
</g>
<g >
</g>
<g style="fill:#000000; fill-opacity:1.0000; 
stroke:#000000; stroke-width:0.0212; stroke-opacity:1; 
stroke-linecap:round; stroke-linejoin:round;">
</g>
<g style="fill:#000000; fill-opacity:1.0000; 
stroke:#000000; stroke-width:0.0000; stroke-opacity:1; 
stroke-linecap:round; stroke-linejoin:round;">
<path style="fill:#000000; fill-opacity:1.0000; 
stroke:#000000; stroke-width:0.0000; stroke-opacity:1; 
stroke-linecap:round; stroke-linejoin:round;fill-rule:evenodd;"
d="M 150.2150,135.5025
150.2150,133.5025
152.2150,133.5025
152.2150,135.5025
Z" /> 
<circle cx="153.7550" cy="134.5025" r="1.0000" /> 
<circle cx="156.2950" cy="134.5025" r="1.0000" /> 
</g>
<g >
</g>
<g style="fill:#000000; fill-opacity:1.0000; 
stroke:#000000; stroke-width:0.0000; stroke-opacity:1; 
stroke-linecap:round; stroke-linejoin:round;">
<circle cx="153.7450" cy="108.4200" r="0.7500" /> 
</g>
<g style="fill:#000000; fill-opacity:1.0000; 
stroke:#000000; stroke-width:0.0212; stroke-opacity:1; 
stroke-linecap:round; stroke-linejoin:round;">
</g>
<g style="fill:#000000; fill-opacity:1.0000; 
stroke:#000000; stroke-width:0.0000; stroke-opacity:1; 
stroke-linecap:round; stroke-linejoin:round;">
<circle cx="153.7450" cy="125.4200" r="0.7500" /> 
</g>
<g style="fill:#000000; fill-opacity:1.0000; 
stroke:#000000; stroke-width:0.0212; stroke-opacity:1; 
stroke-linecap:round; stroke-linejoin:round;">
</g>
<g >
</g>
<g style="fill:#000000; fill-opacity:1.0000; 
stroke:#000000; stroke-width:0.0212; stroke-opacity:1; 
stroke-linecap:round; stroke-linejoin:round;">
</g>
<g style="fill:#000000; fill-opacity:1.0000; 
stroke:#000000; stroke-width:0.0000; stroke-opacity:1; 
stroke-linecap:round; stroke-linejoin:round;">
<circle cx="173.7800" cy="102.0700" r="0.9995" /> 
</g>
<g style="fill:#000000; fill-opacity:1.0000; 
stroke:#000000; stroke-width:0.0212; stroke-opacity:1; 
stroke-linecap:round; stroke-linejoin:round;">
</g>
<g style="fill:#000000; fill-opacity:1.0000; 
stroke:#000000; stroke-width:0.0000; stroke-opacity:1; 
stroke-linecap:round; stroke-linejoin:round;">
<circle cx="166.1600" cy="102.0700" r="0.9995" /> 
</g>
<g style="fill:#000000; fill-opacity:1.0000; 
stroke:#000000; stroke-width:0.0212; stroke-opacity:1; 
stroke-linecap:round; stroke-linejoin:round;">
</g>
<g >
</g>
<g style="fill:#000000; fill-opacity:1.0000; 
stroke:#000000; stroke-width:0.0212; stroke-opacity:1; 
stroke-linecap:round; stroke-linejoin:round;">
</g>
<g style="fill:#000000; fill-opacity:1.0000; 
stroke:#000000; stroke-width:0.0000; stroke-opacity:1; 
stroke-linecap:round; stroke-linejoin:round;">
<circle cx="153.7700" cy="89.4200" r="0.7500" /> 
</g>
<g style="fill:#000000; fill-opacity:1.0000; 
stroke:#000000; stroke-width:0.0212; stroke-opacity:1; 
stroke-linecap:round; stroke-linejoin:round;">
</g>
<g style="fill:#000000; fill-opacity:1.0000; 
stroke:#000000; stroke-width:0.0000; stroke-opacity:1; 
stroke-linecap:round; stroke-linejoin:round;">
<circle cx="153.7700" cy="72.4200" r="0.7500" /> 
</g>
<g style="fill:#000000; fill-opacity:1.0000; 
stroke:#000000; stroke-width:0.0212; stroke-opacity:1; 
stroke-linecap:round; stroke-linejoin:round;">
</g>
<g >
</g>
<g style="fill:#000000; fill-opacity:1.0000; 
stroke:#000000; stroke-width:0.0212; stroke-opacity:1; 
stroke-linecap:round; stroke-linejoin:round;">
</g>
<g style="fill:#000000; fill-opacity:1.0000; 
stroke:#000000; stroke-width:0.0000; stroke-opacity:1; 
stroke-linecap:round; stroke-linejoin:round;">
<circle cx="157.6900" cy="130.8775" r="0.9995" /> 
</g>
<g style="fill:#000000; fill-opacity:1.0000; 
stroke:#000000; stroke-width:0.0212; stroke-opacity:1; 
stroke-linecap:round; stroke-linejoin:round;">
</g>
<g style="fill:#000000; fill-opacity:1.0000; 
stroke:#000000; stroke-width:0.0000; stroke-opacity:1; 
stroke-linecap:round; stroke-linejoin:round;">
<circle cx="150.0700" cy="130.8775" r="0.9995" /> 
</g>
<g style="fill:#000000; fill-opacity:1.0000; 
stroke:#000000; stroke-width:0.0212; stroke-opacity:1; 
stroke-linecap:round; stroke-linejoin:round;">
</g>
<g >
</g>
<g style="fill:#000000; fill-opacity:1.0000; 
stroke:#000000; stroke-width:0.0212; stroke-opacity:1; 
stroke-linecap:round; stroke-linejoin:round;">
</g>
<g style="fill:#000000; fill-opacity:1.0000; 
stroke:#000000; stroke-width:0.0000; stroke-opacity:1; 
stroke-linecap:round; stroke-linejoin:round;">
<circle cx="156.4700" cy="86.6200" r="0.9995" /> 
</g>
<g style="fill:#000000; fill-opacity:1.0000; 
stroke:#000000; stroke-width:0.0212; stroke-opacity:1; 
stroke-linecap:round; stroke-linejoin:round;">
</g>
<g style="fill:#000000; fill-opacity:1.0000; 
stroke:#000000; stroke-width:0.0000; stroke-opacity:1; 
stroke-linecap:round; stroke-linejoin:round;">
<circle cx="156.4700" cy="79.0000" r="0.9995" /> 
</g>
<g style="fill:#000000; fill-opacity:1.0000; 
stroke:#000000; stroke-width:0.0212; stroke-opacity:1; 
stroke-linecap:round; stroke-linejoin:round;">
</g>
<g >
</g>
<g >
</g>
<g style="fill:#000000; fill-opacity:1.0000; 
stroke:#000000; stroke-width:0.0212; stroke-opacity:1; 
stroke-linecap:round; stroke-linejoin:round;">
</g>
<g style="fill:#000000; fill-opacity:1.0000; 
stroke:#000000; stroke-width:1.0000; stroke-opacity:1; 
stroke-linecap:round; stroke-linejoin:round;">
</g>
<g style="fill:#000000; fill-opacity:0.0; 
stroke:#000000; stroke-width:1.0000; stroke-opacity:1; 
stroke-linecap:round; stroke-linejoin:round;">
<path d="M150.0700 134.4175
L150.1550 134.5025
" />
<path d="M150.1550 134.5025
L151.2150 134.5025
" />
<path d="M150.0700 130.8775
L150.0700 134.4175
" />
<path d="M156.5800 122.1450
L156.5700 122.1550
" />
<path d="M173.7800 102.0700
L173.7800 88.7800
" />
<path d="M173.7800 88.7800
L164.0000 79.0000
" />
<path d="M157.6900 130.8775
L157.6900 128.1400
" />
<path d="M157.6900 128.1400
L156.5700 127.0200
" />
<path d="M156.2950 134.5025
L157.6900 134.5025
" />
<path d="M156.5700 127.0200
L156.5700 122.1550
" />
<path d="M163.5700 122.1450
L156.5800 122.1450
" />
<path d="M156.4700 79.0000
L142.0650 79.0000
" />
<path d="M133.3100 87.7550
L133.3100 96.1200
" />
<path d="M164.0000 79.0000
L156.4700 79.0000
" />
<path d="M157.6900 134.5025
L157.6900 130.8775
" />
<path d="M142.0650 79.0000
L133.3100 87.7550
" />
<path d="M173.7800 102.0700
L173.7800 111.9350
" />
<path d="M173.7800 111.9350
L163.5700 122.1450
" />
<path d="M153.7700 89.4200
L155.8200 89.4200
" />
<path d="M156.4700 88.7700
L156.4700 86.6200
" />
<path d="M155.8200 89.4200
L156.4700 88.7700
" />
<path d="M163.2700 101.2200
L164.1200 102.0700
" />
<path d="M164.1200 102.0700
L166.1600 102.0700
" />
<path d="M163.2700 98.9200
L163.2700 101.2200
" />
<path d="M143.3950 96.1200
L144.2450 96.9700
" />
<path d="M144.2450 96.9700
L144.2450 98.9450
" />
<path d="M140.9300 96.1200
L143.3950 96.1200
" />
<path d="M156.5700 114.5350
L156.5700 109.3200
" />
<path d="M155.6700 108.4200
L153.7450 108.4200
" />
<path d="M156.5700 109.3200
L155.6700 108.4200
" />
</g>
<g >
</g>
<g style="fill:#000000; fill-opacity:0.0; 
stroke:#000000; stroke-width:1.0000; stroke-opacity:1; 
stroke-linecap:round; stroke-linejoin:round;">
<g >
</g>
<g style="fill:#000000; fill-opacity:1.0000; 
stroke:#000000; stroke-width:0.0000; stroke-opacity:1; 
stroke-linecap:round; stroke-linejoin:round;">
<path style="fill:#000000; fill-opacity:1.0000; 
stroke:#000000; stroke-width:0.0000; stroke-opacity:1; 
stroke-linecap:round; stroke-linejoin:round;fill-rule:evenodd;"
d="M 154.6310,69.0073
155.7178,69.0615
156.8018,69.1552
157.8818,69.2881
158.9563,69.4602
160.0238,69.6711
161.0829,69.9206
162.1323,70.2084
163.1705,70.5341
164.1962,70.8973
165.2081,71.2974
166.2048,71.7340
167.1850,72.2065
168.1474,72.7143
169.0907,73.2566
170.0138,73.8328
170.9153,74.4422
171.7941,75.0838
172.6490,75.7570
173.4790,76.4607
174.2828,77.1940
175.0596,77.9561
175.8081,78.7458
176.5275,79.5622
177.2168,80.4042
177.8751,81.2706
178.5015,82.1604
179.0952,83.0722
179.6554,84.0051
180.1814,84.9576
180.6725,85.9286
181.1280,86.9168
181.5473,87.9209
181.9299,88.9395
182.2754,89.9714
182.5831,91.0151
182.8528,92.0693
183.0840,93.1326
183.2765,94.2035
183.4299,95.2808
183.5442,96.3629
183.6192,97.4484
183.6547,98.5360
183.6507,99.6241
183.6072,100.7114
183.5243,101.7963
183.4021,102.8776
183.2407,103.9537
183.0403,105.0232
182.8013,106.0847
182.5239,107.1369
182.2085,108.1783
181.8555,109.2076
181.4654,110.2234
181.0387,111.2244
180.5760,112.2092
180.0778,113.1766
179.5448,114.1252
178.9778,115.0539
178.3774,115.9614
177.7445,116.8466
177.0798,117.7081
176.3844,118.5450
175.6590,119.3561
174.9047,120.1403
174.1224,120.8967
173.3132,121.6241
172.4781,122.3217
171.6182,122.9885
170.7347,123.6237
169.8288,124.2264
168.9015,124.7959
167.9542,125.3313
166.9881,125.8319
166.0045,126.2972
165.0046,126.7265
163.9898,127.1192
162.9615,127.4748
161.9208,127.7929
160.8694,128.0730
159.8084,128.3147
159.8080,128.3148
159.8080,128.3148
159.8082,128.3158
159.8169,128.3573
159.8195,128.3827
159.8195,136.2455
159.7998,136.3125
159.7470,136.3583
159.6955,136.3695
147.9445,136.3695
147.8775,136.3498
147.8317,136.2970
147.8205,136.2455
147.8205,130.8775
148.5649,130.8775
148.5854,131.1252
148.6464,131.3662
148.7463,131.5939
148.8822,131.8020
149.0367,131.9698
149.0677,132.0324
149.0695,132.0538
149.0695,134.4048
149.0672,134.4939
149.0672,134.4939
149.0781,134.5542
149.0787,134.5589
149.0849,134.6199
149.0849,134.6199
149.0952,134.6527
149.0971,134.6603
149.1031,134.6942
149.1031,134.6942
149.1259,134.7511
149.1275,134.7556
149.1458,134.8141
149.1458,134.8141
149.1625,134.8441
149.1659,134.8512
149.1786,134.8831
149.1786,134.8831
149.2124,134.9343
149.2148,134.9384
149.2446,134.9920
149.2446,134.9920
149.2446,134.9920
149.2670,135.0181
149.2717,135.0243
149.2784,135.0345
149.2906,135.0530
149.3340,135.0964
149.3372,135.0998
149.3771,135.1464
149.3771,135.1464
149.3771,135.1464
149.3771,135.1464
149.3771,135.1464
149.4043,135.1674
149.4102,135.1726
149.4386,135.2010
149.4999,135.2656
149.4999,135.2656
149.5341,135.2893
149.5503,135.3006
149.5540,135.3034
149.5712,135.3174
149.6016,135.3422
149.6016,135.3422
149.6016,135.3422
149.6316,135.3578
149.6320,135.3581
149.6388,135.3622
149.6613,135.3779
149.7051,135.4323
149.7145,135.4797
149.7145,135.5504
149.7145,135.5504
149.7209,135.6100
149.7712,135.7448
149.7712,135.7448
149.8575,135.8600
149.8575,135.8600
149.9727,135.9463
149.9727,135.9463
150.1075,135.9966
150.1075,135.9966
150.1144,135.9973
150.1671,136.0030
152.2629,136.0030
152.3225,135.9966
152.4573,135.9463
152.5725,135.8600
152.6588,135.7448
152.7091,135.6100
152.7155,135.5504
152.7155,133.4546
152.7091,133.3950
152.6588,133.2602
152.6588,133.2602
152.6588,133.2602
152.5725,133.1450
152.5725,133.1450
152.4573,133.0587
152.4573,133.0587
152.3225,133.0084
152.3225,133.0084
152.2629,133.0020
152.2629,133.0020
152.2629,133.0020
152.2629,133.0020
151.1945,133.0020
151.1275,132.9823
151.0817,132.9295
151.0705,132.8780
151.0705,132.0538
151.0902,131.9867
151.1033,131.9698
151.2578,131.8020
151.2578,131.8020
151.3937,131.5939
151.4936,131.3662
151.5546,131.1252
151.5751,130.8775
151.5546,130.6298
151.4936,130.3888
151.3937,130.1611
151.3937,130.1611
151.2578,129.9530
151.0894,129.7701
151.0894,129.7701
150.8932,129.6175
150.8932,129.6175
150.6746,129.4991
150.6746,129.4991
150.4395,129.4184
150.2556,129.3877
150.1943,129.3775
149.9457,129.3775
149.8967,129.3857
149.7005,129.4184
149.4654,129.4991
149.4654,129.4991
149.2468,129.6175
149.2468,129.6175
149.0506,129.7701
149.0506,129.7701
148.8822,129.9530
148.7463,130.1611
148.6464,130.3888
148.5854,130.6298
148.5649,130.8775
148.5649,130.8775
147.8205,130.8775
147.8205,128.3823
147.8216,128.3711
147.8196,128.3682
147.8186,128.3679
147.8068,128.3666
146.7570,128.1375
145.7030,127.8670
144.6595,127.5585
143.6280,127.2123
142.6096,126.8289
141.6059,126.4087
140.6180,125.9525
139.6474,125.4607
138.6952,124.9339
137.7628,124.3730
136.8514,123.7786
135.9621,123.1515
135.0962,122.4926
134.2548,121.8027
133.4389,121.0826
132.6498,120.3335
131.8883,119.5562
131.1555,118.7518
130.4525,117.9213
129.7800,117.0658
129.1390,116.1865
128.5304,115.2846
127.9548,114.3611
127.4132,113.4173
126.9062,112.4546
126.4345,111.4740
125.9986,110.4770
125.5992,109.4648
125.2369,108.4388
125.2310,108.4200
152.4897,108.4200
152.5088,108.6376
152.5088,108.6380
152.5088,108.6380
152.5654,108.8493
152.5654,108.8493
152.5654,108.8493
152.5678,108.8544
152.6579,109.0476
152.6579,109.0476
152.7834,109.2269
152.9381,109.3816
153.1174,109.5071
153.3157,109.5996
153.5270,109.6562
153.7099,109.6722
153.7450,109.6753
153.7450,109.6753
153.7450,109.6753
153.7733,109.6728
153.9630,109.6562
154.1743,109.5996
154.3726,109.5071
154.4331,109.4648
154.4643,109.4429
154.5305,109.4206
154.5354,109.4205
155.2042,109.4205
155.2713,109.4402
155.2919,109.4568
155.5332,109.6981
155.5667,109.7594
155.5695,109.7858
155.5695,113.3587
155.5498,113.4258
155.5367,113.4427
155.3822,113.6105
155.2463,113.8186
155.1464,114.0463
155.0854,114.2873
155.0649,114.5350
155.0649,114.5350
155.0854,114.7827
155.1464,115.0237
155.2463,115.2514
155.3822,115.4595
155.5506,115.6424
155.5506,115.6424
155.6983,115.7573
155.7468,115.7950
155.9654,115.9134
155.9654,115.9134
156.2005,115.9941
156.2005,115.9941
156.2005,115.9941
156.4457,116.0350
156.4457,116.0350
156.6943,116.0350
156.6943,116.0350
156.9395,115.9941
157.1746,115.9134
157.3932,115.7950
157.5894,115.6424
157.7578,115.4595
157.8937,115.2514
157.9936,115.0237
158.0546,114.7827
158.0637,114.6726
158.0751,114.5350
158.0751,114.5350
158.0546,114.2873
158.0546,114.2873
157.9936,114.0463
157.8937,113.8186
157.8937,113.8186
157.7578,113.6105
157.6033,113.4427
157.5723,113.3801
157.5705,113.3587
157.5705,109.3327
157.5706,109.3304
157.5728,109.2436
157.5619,109.1832
157.5613,109.1786
157.5551,109.1176
157.5448,109.0848
157.5429,109.0772
157.5369,109.0433
157.5369,109.0433
157.5141,108.9864
157.5125,108.9819
157.4942,108.9234
157.4775,108.8934
157.4741,108.8863
157.4614,108.8544
157.4614,108.8544
157.4276,108.8032
157.4252,108.7991
157.4144,108.7797
157.3954,108.7455
157.3856,108.7341
157.3730,108.7194
157.3683,108.7132
157.3494,108.6845
157.3060,108.6411
157.3028,108.6376
157.2988,108.6329
157.2629,108.5911
157.2629,108.5911
157.2357,108.5701
157.2298,108.5649
156.3865,107.7215
156.3251,107.6569
156.3251,107.6569
156.3251,107.6569
156.2972,107.6376
156.2747,107.6219
156.2709,107.6191
156.2234,107.5803
156.2234,107.5803
156.1930,107.5644
156.1863,107.5603
156.1580,107.5407
156.1580,107.5407
156.1580,107.5407
156.1580,107.5407
156.1017,107.5165
156.0974,107.5145
156.0431,107.4861
156.0430,107.4861
156.0430,107.4861
156.0370,107.4844
156.0100,107.4766
156.0026,107.4740
155.9711,107.4605
155.9711,107.4605
155.9110,107.4481
155.9064,107.4470
155.8474,107.4301
155.8474,107.4301
155.8132,107.4275
155.8054,107.4264
155.7717,107.4195
155.7717,107.4195
155.7104,107.4195
155.7057,107.4193
155.7001,107.4189
155.6445,107.4147
155.6246,107.4172
155.6104,107.4190
155.6026,107.4195
154.5354,107.4195
154.4684,107.3998
154.4643,107.3971
154.3726,107.3329
154.3726,107.3329
154.3726,107.3329
154.1743,107.2404
154.1743,107.2404
154.1743,107.2404
153.9630,107.1838
153.7450,107.1647
153.7450,107.1647
153.5997,107.1774
153.5270,107.1838
153.5270,107.1838
153.3157,107.2404
153.3157,107.2404
153.1174,107.3329
153.1174,107.3329
152.9381,107.4584
152.7834,107.6131
152.6579,107.7924
152.6579,107.7924
152.5654,107.9907
152.5654,107.9907
152.5088,108.2020
152.5088,108.2020
152.4897,108.4200
125.2310,108.4200
124.9120,107.4003
124.6250,106.3507
124.3762,105.2914
124.1661,104.2237
123.9949,103.1491
123.8628,102.0691
123.7700,100.9849
123.7166,99.8981
123.7026,98.8101
123.7282,97.7222
123.7932,96.6360
123.8429,96.1200
131.8049,96.1200
131.8254,96.3677
131.8254,96.3677
131.8254,96.3677
131.8775,96.5734
131.8864,96.6087
131.9863,96.8364
132.1222,97.0445
132.1959,97.1245
132.2906,97.2274
132.4868,97.3800
132.7054,97.4984
132.7054,97.4984
132.9405,97.5791
132.9405,97.5791
132.9405,97.5791
133.1857,97.6200
133.1857,97.6200
133.4343,97.6200
133.4343,97.6200
133.6795,97.5791
133.9146,97.4984
134.1332,97.3800
134.3294,97.2274
134.4978,97.0445
134.6337,96.8364
134.7336,96.6087
134.7946,96.3677
134.8151,96.1200
139.4249,96.1200
139.4454,96.3677
139.4454,96.3677
139.4454,96.3677
139.4975,96.5734
139.5064,96.6087
139.6063,96.8364
139.7422,97.0445
139.8159,97.1245
139.9106,97.2274
140.1068,97.3800
140.3254,97.4984
140.3254,97.4984
140.5605,97.5791
140.5605,97.5791
140.5605,97.5791
140.8057,97.6200
140.8057,97.6200
141.0543,97.6200
141.0543,97.6200
141.2995,97.5791
141.5346,97.4984
141.7532,97.3800
141.9494,97.2274
142.0109,97.1605
142.0708,97.1245
142.1022,97.1205
142.9292,97.1205
142.9963,97.1402
143.0169,97.1568
143.2082,97.3481
143.2417,97.4094
143.2445,97.4358
143.2445,98.1546
143.2248,98.2216
143.2221,98.2257
143.1579,98.3174
143.1579,98.3174
143.0654,98.5157
143.0654,98.5157
143.0088,98.7270
143.0088,98.7270
142.9897,98.9450
142.9897,98.9450
143.0088,99.1630
143.0088,99.1630
143.0654,99.3743
143.0654,99.3743
143.0654,99.3743
143.1117,99.4735
143.1579,99.5726
143.1579,99.5726
143.2834,99.7519
143.4381,99.9066
143.6174,100.0321
143.8157,100.1246
144.0270,100.1812
144.2099,100.1972
144.2450,100.2003
144.2450,100.2003
144.2450,100.2003
144.2733,100.1978
144.4630,100.1812
144.6743,100.1246
144.8726,100.0321
145.0519,99.9066
145.2066,99.7519
145.3321,99.5726
145.4246,99.3743
145.4812,99.1630
145.5003,98.9450
145.4981,98.9200
162.0147,98.9200
162.0338,99.1380
162.0338,99.1380
162.0904,99.3493
162.0904,99.3493
162.0904,99.3493
162.1367,99.4485
162.1829,99.5476
162.1829,99.5476
162.2471,99.6393
162.2694,99.7055
162.2695,99.7104
162.2695,101.2073
162.2672,101.2964
162.2672,101.2964
162.2781,101.3567
162.2787,101.3614
162.2849,101.4224
162.2849,101.4224
162.2952,101.4552
162.2971,101.4628
162.3031,101.4967
162.3031,101.4967
162.3259,101.5536
162.3275,101.5581
162.3458,101.6166
162.3458,101.6166
162.3625,101.6466
162.3659,101.6537
162.3786,101.6856
162.3786,101.6856
162.4124,101.7368
162.4148,101.7409
162.4446,101.7945
162.4446,101.7945
162.4446,101.7945
162.4670,101.8206
162.4717,101.8268
162.4843,101.8459
162.4906,101.8555
162.5340,101.8989
162.5372,101.9023
162.5771,101.9489
162.5771,101.9489
162.6043,101.9699
162.6102,101.9751
163.4036,102.7685
163.4649,102.8331
163.4649,102.8331
163.5153,102.8681
163.5190,102.8709
163.5666,102.9097
163.5666,102.9097
163.5666,102.9097
163.5970,102.9256
163.6038,102.9297
163.6320,102.9493
163.6883,102.9735
163.6926,102.9755
163.7470,103.0039
163.7745,103.0118
163.7800,103.0134
163.7874,103.0160
163.8189,103.0295
163.8189,103.0295
163.8189,103.0295
163.8790,103.0419
163.8836,103.0430
163.8975,103.0470
163.9426,103.0599
163.9768,103.0625
163.9846,103.0636
164.0183,103.0705
164.0183,103.0705
164.0796,103.0705
164.0843,103.0707
164.1191,103.0733
164.1455,103.0753
164.1455,103.0753
164.1455,103.0753
164.1796,103.0710
164.1874,103.0705
164.9878,103.0705
165.0549,103.0902
165.0791,103.1105
165.1406,103.1774
165.1406,103.1774
165.3368,103.3300
165.3368,103.3300
165.4979,103.4172
165.5554,103.4484
165.5554,103.4484
165.7905,103.5291
165.7905,103.5291
165.7905,103.5291
166.0357,103.5700
166.0357,103.5700
166.2843,103.5700
166.2843,103.5700
166.5295,103.5291
166.7646,103.4484
166.9832,103.3300
167.1794,103.1774
167.3478,102.9945
167.4837,102.7864
167.5836,102.5587
167.6446,102.3177
167.6651,102.0700
167.6446,101.8223
167.5836,101.5813
167.4837,101.3536
167.4191,101.2547
167.3478,101.1455
167.1794,100.9626
167.1794,100.9626
166.9832,100.8100
166.9832,100.8100
166.7646,100.6916
166.7646,100.6916
166.5295,100.6109
166.3456,100.5802
166.2843,100.5700
166.0357,100.5700
165.9867,100.5782
165.7905,100.6109
165.5554,100.6916
165.5554,100.6916
165.3368,100.8100
165.3368,100.8100
165.1406,100.9626
165.1406,100.9626
165.0791,101.0295
165.0192,101.0655
164.9878,101.0695
164.5858,101.0695
164.5187,101.0498
164.4981,101.0332
164.3068,100.8419
164.2733,100.7806
164.2705,100.7542
164.2705,99.7104
164.2902,99.6434
164.2929,99.6393
164.3571,99.5476
164.4496,99.3493
164.5062,99.1380
164.5253,98.9200
164.5062,98.7020
164.4496,98.4907
164.3571,98.2924
164.3571,98.2924
164.3571,98.2924
164.2316,98.1131
164.2316,98.1131
164.0769,97.9584
163.8976,97.8329
163.8976,97.8329
163.8976,97.8329
163.7985,97.7867
163.6993,97.7404
163.6993,97.7404
163.6993,97.7404
163.4880,97.6838
163.2700,97.6647
163.2700,97.6647
163.1247,97.6774
163.0520,97.6838
163.0520,97.6838
162.8407,97.7404
162.8407,97.7404
162.6424,97.8329
162.6424,97.8329
162.4631,97.9584
162.3084,98.1131
162.1829,98.2924
162.1829,98.2924
162.0904,98.4907
162.0904,98.4907
162.0338,98.7020
162.0338,98.7020
162.0147,98.9200
162.0147,98.9200
145.4981,98.9200
145.4812,98.7270
145.4246,98.5157
145.3321,98.3174
145.3321,98.3174
145.3321,98.3174
145.2679,98.2257
145.2456,98.1595
145.2455,98.1546
145.2455,96.9827
145.2478,96.8936
145.2478,96.8936
145.2478,96.8936
145.2369,96.8332
145.2363,96.8286
145.2301,96.7676
145.2198,96.7348
145.2179,96.7272
145.2119,96.6933
145.2119,96.6933
145.2119,96.6933
145.1891,96.6364
145.1875,96.6319
145.1692,96.5734
145.1692,96.5734
145.1692,96.5734
145.1525,96.5434
145.1491,96.5363
145.1364,96.5044
145.1364,96.5044
145.1364,96.5044
145.1239,96.4854
145.1026,96.4531
145.1002,96.4491
145.0704,96.3955
145.0480,96.3694
145.0433,96.3632
145.0244,96.3345
145.0244,96.3345
145.0027,96.3128
144.9810,96.2911
144.9778,96.2877
144.9379,96.2411
144.9107,96.2201
144.9048,96.2149
144.1115,95.4215
144.0501,95.3569
144.0222,95.3376
143.9997,95.3219
143.9959,95.3191
143.9484,95.2803
143.9484,95.2803
143.9180,95.2644
143.9113,95.2603
143.8830,95.2407
143.8830,95.2407
143.8830,95.2407
143.8830,95.2407
143.8267,95.2165
143.8224,95.2145
143.7681,95.1861
143.7680,95.1861
143.7680,95.1861
143.7620,95.1844
143.7350,95.1766
143.7276,95.1740
143.6961,95.1605
143.6961,95.1605
143.6360,95.1481
143.6314,95.1470
143.5724,95.1301
143.5724,95.1301
143.5382,95.1275
143.5304,95.1264
143.4967,95.1195
143.4967,95.1195
143.4354,95.1195
143.4307,95.1193
143.4251,95.1189
143.3695,95.1147
143.3496,95.1172
143.3354,95.1190
143.3276,95.1195
142.1022,95.1195
142.0351,95.0998
142.0109,95.0795
141.9494,95.0126
141.9494,95.0126
141.7532,94.8600
141.7532,94.8600
141.5346,94.7416
141.5346,94.7416
141.2995,94.6609
141.1156,94.6302
141.0543,94.6200
140.8057,94.6200
140.7567,94.6282
140.5605,94.6609
140.3254,94.7416
140.3254,94.7416
140.1068,94.8600
140.1068,94.8600
139.9106,95.0126
139.9106,95.0126
139.7422,95.1955
139.6063,95.4036
139.5064,95.6313
139.4454,95.8723
139.4249,96.1200
139.4249,96.1200
134.8151,96.1200
134.8151,96.1200
134.8129,96.0934
134.7946,95.8723
134.7946,95.8723
134.7336,95.6313
134.6337,95.4036
134.6337,95.4036
134.4978,95.1955
134.3433,95.0277
134.3123,94.9651
134.3105,94.9437
134.3105,89.4200
152.5147,89.4200
152.5338,89.6380
152.5338,89.6380
152.5904,89.8493
152.5904,89.8493
152.5904,89.8493
152.6367,89.9485
152.6829,90.0476
152.6829,90.0476
152.8084,90.2269
152.9631,90.3816
153.1424,90.5071
153.3407,90.5996
153.5520,90.6562
153.7349,90.6722
153.7700,90.6753
153.7700,90.6753
153.7700,90.6753
153.7983,90.6728
153.9880,90.6562
154.1993,90.5996
154.3976,90.5071
154.4165,90.4939
154.4893,90.4429
154.5555,90.4206
154.5604,90.4205
155.8073,90.4205
155.8964,90.4228
155.8964,90.4228
155.8964,90.4228
155.9568,90.4119
155.9614,90.4113
156.0036,90.4070
156.0224,90.4051
156.0552,90.3948
156.0628,90.3929
156.0967,90.3869
156.1536,90.3641
156.1581,90.3625
156.2166,90.3442
156.2466,90.3275
156.2537,90.3241
156.2856,90.3114
156.3369,90.2776
156.3409,90.2752
156.3945,90.2454
156.4206,90.2230
156.4268,90.2183
156.4555,90.1994
156.4989,90.1560
156.5023,90.1528
156.5310,90.1283
156.5489,90.1129
156.5699,90.0857
156.5751,90.0798
157.1685,89.4865
157.2331,89.4251
157.2681,89.3747
157.2709,89.3709
157.2746,89.3664
157.3097,89.3234
157.3256,89.2930
157.3297,89.2862
157.3345,89.2793
157.3493,89.2580
157.3735,89.2017
157.3755,89.1974
157.4039,89.1430
157.4134,89.1100
157.4160,89.1026
157.4295,89.0711
157.4419,89.0109
157.4430,89.0064
157.4599,88.9474
157.4625,88.9132
157.4636,88.9054
157.4705,88.8717
157.4705,88.8104
157.4707,88.8057
157.4753,88.7445
157.4710,88.7104
157.4705,88.7026
157.4705,87.7963
157.4902,87.7292
157.5033,87.7123
157.6578,87.5445
157.6578,87.5445
157.7937,87.3364
157.8936,87.1087
157.9546,86.8677
157.9751,86.6200
157.9546,86.3723
157.8936,86.1313
157.7937,85.9036
157.6578,85.6955
157.6578,85.6955
157.4894,85.5126
157.4894,85.5126
157.2932,85.3600
157.2932,85.3600
157.0746,85.2416
157.0746,85.2416
156.8395,85.1609
156.6556,85.1302
156.5943,85.1200
156.3457,85.1200
156.2967,85.1282
156.1005,85.1609
155.8654,85.2416
155.8654,85.2416
155.6468,85.3600
155.6468,85.3600
155.4506,85.5126
155.4506,85.5126
155.2822,85.6955
155.1463,85.9036
155.0464,86.1313
154.9854,86.3723
154.9649,86.6200
154.9649,86.6200
154.9854,86.8677
155.0464,87.1087
155.1463,87.3364
155.2822,87.5445
155.4367,87.7123
155.4677,87.7749
155.4695,87.7963
155.4695,88.2955
155.4498,88.3625
155.3970,88.4083
155.3455,88.4195
154.5604,88.4195
154.4934,88.3998
154.4893,88.3971
154.3976,88.3329
154.3976,88.3329
154.3976,88.3329
154.1993,88.2404
154.1993,88.2404
154.1993,88.2404
153.9880,88.1838
153.7700,88.1647
153.7700,88.1647
153.6360,88.1764
153.5520,88.1838
153.5520,88.1838
153.3407,88.2404
153.3407,88.2404
153.1424,88.3329
153.1424,88.3329
152.9631,88.4584
152.8084,88.6131
152.6829,88.7924
152.6829,88.7924
152.5904,88.9907
152.5904,88.9907
152.5338,89.2020
152.5338,89.2020
152.5147,89.4200
152.5147,89.4200
134.3105,89.4200
134.3105,88.2208
134.3302,88.1537
134.3468,88.1331
142.4431,80.0368
142.5044,80.0033
142.5308,80.0005
155.2978,80.0005
155.3649,80.0202
155.3891,80.0405
155.4506,80.1074
155.6468,80.2600
155.8654,80.3784
155.8654,80.3784
156.1005,80.4591
156.1005,80.4591
156.1005,80.4591
156.3457,80.5000
156.3457,80.5000
156.5943,80.5000
156.5943,80.5000
156.8395,80.4591
157.0746,80.3784
157.2932,80.2600
157.4894,80.1074
157.5509,80.0405
157.6108,80.0045
157.6422,80.0005
163.5342,80.0005
163.6013,80.0202
163.6219,80.0368
172.7432,89.1581
172.7767,89.2194
172.7795,89.2458
172.7795,100.8937
172.7598,100.9608
172.7467,100.9777
172.5922,101.1455
172.4563,101.3536
172.3564,101.5813
172.2954,101.8223
172.2749,102.0700
172.2749,102.0700
172.2954,102.3177
172.3564,102.5587
172.4563,102.7864
172.5922,102.9945
172.7467,103.1623
172.7777,103.2249
172.7795,103.2463
172.7795,111.4692
172.7598,111.5363
172.7432,111.5569
163.1919,121.1082
163.1306,121.1417
163.1042,121.1445
157.7330,121.1445
157.6659,121.1248
157.6417,121.1045
157.5894,121.0476
157.5894,121.0476
157.5894,121.0476
157.3932,120.8950
157.3932,120.8950
157.1746,120.7766
157.1746,120.7766
156.9395,120.6959
156.7556,120.6652
156.6943,120.6550
156.4457,120.6550
156.3967,120.6632
156.2005,120.6959
155.9654,120.7766
155.9654,120.7766
155.7468,120.8950
155.7468,120.8950
155.5506,121.0476
155.5506,121.0476
155.3822,121.2305
155.2463,121.4386
155.1464,121.6663
155.0854,121.9073
155.0649,122.1550
155.0649,122.1550
155.0854,122.4027
155.1464,122.6437
155.2463,122.8714
155.3822,123.0795
155.5367,123.2473
155.5677,123.3099
155.5695,123.3313
155.5695,127.0073
155.5672,127.0964
155.5672,127.0964
155.5781,127.1567
155.5787,127.1614
155.5849,127.2224
155.5849,127.2224
155.5952,127.2552
155.5971,127.2628
155.6031,127.2967
155.6031,127.2967
155.6259,127.3536
155.6275,127.3581
155.6458,127.4166
155.6458,127.4166
155.6625,127.4466
155.6659,127.4537
155.6786,127.4856
155.6786,127.4856
155.6911,127.5045
155.7121,127.5364
155.7124,127.5368
155.7148,127.5409
155.7446,127.5945
155.7446,127.5945
155.7446,127.5945
155.7670,127.6206
155.7717,127.6268
155.7832,127.6442
155.7906,127.6555
155.8340,127.6989
155.8372,127.7023
155.8771,127.7489
155.8771,127.7489
155.9043,127.7699
155.9102,127.7751
156.3395,128.2044
156.6532,128.5181
156.6867,128.5794
156.6895,128.6058
156.6895,129.7012
156.6698,129.7683
156.6567,129.7852
156.5022,129.9530
156.3663,130.1611
156.2664,130.3888
156.2054,130.6298
156.1849,130.8775
156.1849,130.8775
156.2054,131.1252
156.2664,131.3662
156.3663,131.5939
156.5022,131.8020
156.6567,131.9698
156.6877,132.0324
156.6895,132.0538
156.6895,132.9007
156.6698,132.9677
156.6170,133.0135
156.5479,133.0234
156.5451,133.0230
156.4193,133.0020
156.1707,133.0020
155.9254,133.0429
155.6902,133.1237
155.6902,133.1237
155.4715,133.2420
155.2753,133.3948
155.1068,133.5777
154.9708,133.7859
154.8709,134.0136
154.8099,134.2547
154.8099,134.2547
154.7894,134.5025
154.7894,134.5025
154.8099,134.7503
154.8099,134.7503
154.8709,134.9914
154.9708,135.2191
155.1068,135.4273
155.1269,135.4491
155.2753,135.6102
155.4715,135.7630
155.6902,135.8813
155.9254,135.9621
156.1707,136.0030
156.4193,136.0030
156.6646,135.9621
156.8998,135.8813
157.1185,135.7630
157.3147,135.6102
157.3392,135.5837
157.3766,135.5430
157.4365,135.5070
157.4679,135.5030
157.6631,135.5030
157.6662,135.5031
157.6931,135.5044
157.7409,135.5069
157.8149,135.4955
157.8180,135.4951
157.8924,135.4876
157.9078,135.4827
157.9261,135.4785
157.9305,135.4778
157.9421,135.4761
158.0123,135.4501
158.0152,135.4491
158.0866,135.4267
158.1007,135.4188
158.1178,135.4110
158.1329,135.4054
158.1964,135.3658
158.1990,135.3642
158.2645,135.3279
158.2767,135.3174
158.2919,135.3063
158.3056,135.2978
158.3598,135.2462
158.3621,135.2441
158.4189,135.1954
158.4287,135.1826
158.4414,135.1687
158.4458,135.1644
158.4531,135.1576
158.4958,135.0961
158.4976,135.0937
158.5434,135.0345
158.5505,135.0200
158.5601,135.0038
158.5693,134.9905
158.5988,134.9217
158.6001,134.9190
158.6331,134.8518
158.6371,134.8362
158.6432,134.8184
158.6495,134.8036
158.6495,134.8036
158.6646,134.7302
158.6653,134.7272
158.6841,134.6548
158.6849,134.6387
158.6873,134.6200
158.6905,134.6042
158.6905,134.5294
158.6906,134.5263
158.6919,134.5004
158.6944,134.4516
158.6919,134.4356
158.6905,134.4169
158.6905,132.0538
158.7102,131.9867
158.7233,131.9698
158.8778,131.8020
158.8778,131.8020
159.0137,131.5939
159.1136,131.3662
159.1746,131.1252
159.1951,130.8775
159.1746,130.6298
159.1136,130.3888
159.0137,130.1611
159.0137,130.1611
158.8778,129.9530
158.7233,129.7852
158.6923,129.7226
158.6905,129.7012
158.6905,128.1527
158.6909,128.1375
158.6928,128.0636
158.6819,128.0032
158.6813,127.9986
158.6751,127.9376
158.6648,127.9048
158.6629,127.8972
158.6569,127.8633
158.6569,127.8633
158.6341,127.8064
158.6325,127.8019
158.6241,127.7751
158.6142,127.7434
158.6142,127.7434
158.6142,127.7434
158.5975,127.7134
158.5941,127.7063
158.5814,127.6744
158.5814,127.6744
158.5476,127.6232
158.5452,127.6191
158.5344,127.5997
158.5154,127.5655
158.5154,127.5655
158.4930,127.5394
158.4883,127.5332
158.4694,127.5045
158.4260,127.4611
158.4228,127.4576
158.4163,127.4501
158.3829,127.4111
158.3829,127.4111
158.3557,127.3901
158.3498,127.3849
157.6068,126.6419
157.5733,126.5806
157.5705,126.5542
157.5705,123.3313
157.5902,123.2642
157.6033,123.2473
157.6601,123.1855
157.7200,123.1495
157.7514,123.1455
163.5573,123.1455
163.6464,123.1478
163.6464,123.1478
163.6464,123.1478
163.7068,123.1369
163.7114,123.1363
163.7536,123.1320
163.7724,123.1301
163.8052,123.1198
163.8128,123.1179
163.8467,123.1119
163.9036,123.0891
163.9081,123.0875
163.9666,123.0692
163.9966,123.0525
164.0037,123.0491
164.0356,123.0364
164.0869,123.0026
164.0909,123.0002
164.1445,122.9704
164.1706,122.9480
164.1768,122.9433
164.2055,122.9244
164.2489,122.8810
164.2523,122.8778
164.2989,122.8379
164.3199,122.8107
164.3251,122.8048
174.4785,112.6514
174.5431,112.5901
174.5781,112.5397
174.5809,112.5360
174.6197,112.4884
174.6356,112.4580
174.6397,112.4512
174.6593,112.4230
174.6835,112.3666
174.6855,112.3624
174.7139,112.3080
174.7234,112.2750
174.7260,112.2676
174.7395,112.2361
174.7519,112.1759
174.7530,112.1714
174.7699,112.1124
174.7725,112.0782
174.7736,112.0704
174.7805,112.0367
174.7805,111.9754
174.7807,111.9707
174.7853,111.9095
174.7853,111.9095
174.7810,111.8754
174.7805,111.8676
174.7805,107.5407
174.7805,103.2463
174.8002,103.1792
174.8133,103.1623
174.9678,102.9945
175.1037,102.7864
175.2036,102.5587
175.2646,102.3177
175.2851,102.0700
175.2646,101.8223
175.2036,101.5813
175.1037,101.3536
175.0391,101.2547
174.9678,101.1455
174.8133,100.9777
174.7823,100.9151
174.7805,100.8937
174.7805,88.7927
174.7828,88.7036
174.7828,88.7036
174.7828,88.7036
174.7719,88.6433
174.7713,88.6386
174.7680,88.6067
174.7651,88.5776
174.7548,88.5448
174.7529,88.5372
174.7469,88.5033
174.7241,88.4464
174.7225,88.4420
174.7042,88.3834
174.6926,88.3625
174.6875,88.3534
174.6841,88.3463
174.6714,88.3144
174.6714,88.3144
174.6589,88.2955
174.6376,88.2631
174.6352,88.2591
174.6054,88.2055
174.5830,88.1794
174.5783,88.1732
174.5594,88.1445
174.5594,88.1445
174.5377,88.1228
174.5160,88.1011
174.5128,88.0977
174.4729,88.0511
174.4457,88.0301
174.4398,88.0249
164.7165,78.3015
164.6551,78.2369
164.6272,78.2176
164.6047,78.2019
164.6009,78.1991
164.5534,78.1603
164.5534,78.1603
164.5230,78.1444
164.5163,78.1403
164.4880,78.1207
164.4880,78.1207
164.4880,78.1207
164.4880,78.1207
164.4317,78.0965
164.4274,78.0945
164.3731,78.0661
164.3731,78.0661
164.3730,78.0661
164.3670,78.0644
164.3400,78.0566
164.3326,78.0540
164.3011,78.0405
164.3011,78.0405
164.2410,78.0281
164.2364,78.0270
164.1774,78.0101
164.1774,78.0101
164.1432,78.0075
164.1354,78.0064
164.1017,77.9995
164.1017,77.9995
164.0404,77.9995
164.0357,77.9993
164.0301,77.9989
163.9745,77.9947
163.9546,77.9972
163.9404,77.9990
163.9326,77.9995
157.6422,77.9995
157.5751,77.9798
157.5509,77.9595
157.4894,77.8926
157.4894,77.8926
157.2932,77.7400
157.2932,77.7400
157.0746,77.6216
157.0746,77.6216
156.8395,77.5409
156.6556,77.5102
156.5943,77.5000
156.3457,77.5000
156.2967,77.5082
156.1005,77.5409
155.8654,77.6216
155.8654,77.6216
155.6468,77.7400
155.6468,77.7400
155.4506,77.8926
155.4506,77.8926
155.3891,77.9595
155.3292,77.9955
155.2978,77.9995
142.0777,77.9995
141.9886,77.9972
141.9886,77.9972
141.9375,78.0064
141.9283,78.0081
141.9236,78.0087
141.8626,78.0149
141.8626,78.0149
141.8298,78.0252
141.8222,78.0271
141.8191,78.0276
141.7883,78.0331
141.7883,78.0331
141.7314,78.0559
141.7269,78.0575
141.6684,78.0758
141.6684,78.0758
141.6684,78.0758
141.6684,78.0758
141.6384,78.0925
141.6313,78.0959
141.5994,78.1086
141.5994,78.1086
141.5994,78.1086
141.5994,78.1086
141.5994,78.1086
141.5482,78.1424
141.5441,78.1448
141.4905,78.1746
141.4905,78.1746
141.4644,78.1970
141.4582,78.2017
141.4295,78.2206
141.4295,78.2206
141.3861,78.2640
141.3827,78.2672
141.3361,78.3071
141.3361,78.3071
141.3151,78.3343
141.3099,78.3402
132.6115,87.0385
132.5469,87.0999
132.5119,87.1503
132.5091,87.1541
132.4703,87.2016
132.4703,87.2016
132.4544,87.2320
132.4503,87.2388
132.4307,87.2670
132.4065,87.3233
132.4045,87.3276
132.3761,87.3820
132.3761,87.3820
132.3666,87.4150
132.3640,87.4224
132.3505,87.4539
132.3381,87.5140
132.3370,87.5186
132.3201,87.5776
132.3201,87.5776
132.3175,87.6118
132.3164,87.6196
132.3138,87.6326
132.3095,87.6533
132.3095,87.7146
132.3093,87.7193
132.3047,87.7805
132.3067,87.7963
132.3090,87.8146
132.3095,87.8224
132.3095,94.9437
132.2898,95.0108
132.2767,95.0277
132.1222,95.1955
131.9863,95.4036
131.8864,95.6313
131.8254,95.8723
131.8049,96.1200
131.8049,96.1200
123.8429,96.1200
123.8976,95.5529
124.0412,94.4743
124.2239,93.4016
124.4454,92.3363
124.7054,91.2797
125.0036,90.2332
125.3395,89.1983
125.7128,88.1762
126.1230,87.1683
126.5694,86.1760
127.0516,85.2005
127.5689,84.2432
128.1205,83.3053
128.7059,82.3880
129.3241,81.4926
129.9745,80.6202
130.6560,79.7719
131.3679,78.9490
132.1092,78.1524
132.8789,77.3833
133.6761,76.6426
134.4995,75.9314
135.3483,75.2504
136.2212,74.6008
137.1171,73.9832
138.0348,73.3986
138.9731,72.8476
139.9309,72.3311
140.9067,71.8497
141.8994,71.4040
142.1618,71.2974
142.9075,70.9946
143.9299,70.6221
144.9651,70.2869
146.0118,69.9895
147.0686,69.7303
148.1342,69.5096
149.2070,69.3278
150.2857,69.1850
151.3689,69.0814
152.4551,69.0172
153.5430,68.9925
Z" /> 
</g>
</g>
</g>
<g style="fill:#FFFFFF; fill-opacity:1.0000; 
stroke:#FFFFFF; stroke-width:0.0000; stroke-opacity:1; 
stroke-linecap:round; stroke-linejoin:round;">
<circle cx="163.2700" cy="98.9200" r="0.1750" /> 
</g>
<g style="fill:#FFFFFF; fill-opacity:1.0000; 
stroke:#FFFFFF; stroke-width:0.0212; stroke-opacity:1; 
stroke-linecap:round; stroke-linejoin:round;">
</g>
<g style="fill:#FFFFFF; fill-opacity:1.0000; 
stroke:#FFFFFF; stroke-width:0.0000; stroke-opacity:1; 
stroke-linecap:round; stroke-linejoin:round;">
<circle cx="180.2700" cy="98.9200" r="0.1750" /> 
</g>
<g style="fill:#FFFFFF; fill-opacity:1.0000; 
stroke:#FFFFFF; stroke-width:0.0212; stroke-opacity:1; 
stroke-linecap:round; stroke-linejoin:round;">
</g>
<g style="fill:#FFFFFF; fill-opacity:1.0000; 
stroke:#FFFFFF; stroke-width:0.0000; stroke-opacity:1; 
stroke-linecap:round; stroke-linejoin:round;">
<circle cx="144.2450" cy="98.9450" r="0.1750" /> 
</g>
<g style="fill:#FFFFFF; fill-opacity:1.0000; 
stroke:#FFFFFF; stroke-width:0.0212; stroke-opacity:1; 
stroke-linecap:round; stroke-linejoin:round;">
</g>
<g style="fill:#FFFFFF; fill-opacity:1.0000; 
stroke:#FFFFFF; stroke-width:0.0000; stroke-opacity:1; 
stroke-linecap:round; stroke-linejoin:round;">
<circle cx="127.2450" cy="98.9450" r="0.1750" /> 
</g>
<g style="fill:#FFFFFF; fill-opacity:1.0000; 
stroke:#FFFFFF; stroke-width:0.0212; stroke-opacity:1; 
stroke-linecap:round; stroke-linejoin:round;">
</g>
<g style="fill:#FFFFFF; fill-opacity:1.0000; 
stroke:#FFFFFF; stroke-width:0.0000; stroke-opacity:1; 
stroke-linecap:round; stroke-linejoin:round;">
<circle cx="133.3100" cy="96.1200" r="0.1750" /> 
</g>
<g style="fill:#FFFFFF; fill-opacity:1.0000; 
stroke:#FFFFFF; stroke-width:0.0212; stroke-opacity:1; 
stroke-linecap:round; stroke-linejoin:round;">
</g>
<g style="fill:#FFFFFF; fill-opacity:1.0000; 
stroke:#FFFFFF; stroke-width:0.0000; stroke-opacity:1; 
stroke-linecap:round; stroke-linejoin:round;">
<circle cx="140.9300" cy="96.1200" r="0.1750" /> 
</g>
<g style="fill:#FFFFFF; fill-opacity:1.0000; 
stroke:#FFFFFF; stroke-width:0.0212; stroke-opacity:1; 
stroke-linecap:round; stroke-linejoin:round;">
</g>
<g style="fill:#FFFFFF; fill-opacity:1.0000; 
stroke:#FFFFFF; stroke-width:0.0000; stroke-opacity:1; 
stroke-linecap:round; stroke-linejoin:round;">
<circle cx="156.5700" cy="122.1550" r="0.1750" /> 
</g>
<g style="fill:#FFFFFF; fill-opacity:1.0000; 
stroke:#FFFFFF; stroke-width:0.0212; stroke-opacity:1; 
stroke-linecap:round; stroke-linejoin:round;">
</g>
<g style="fill:#FFFFFF; fill-opacity:1.0000; 
stroke:#FFFFFF; stroke-width:0.0000; stroke-opacity:1; 
stroke-linecap:round; stroke-linejoin:round;">
<circle cx="156.5700" cy="114.5350" r="0.1750" /> 
</g>
<g style="fill:#FFFFFF; fill-opacity:1.0000; 
stroke:#FFFFFF; stroke-width:0.0212; stroke-opacity:1; 
stroke-linecap:round; stroke-linejoin:round;">
</g>
<g style="fill:#FFFFFF; fill-opacity:1.0000; 
stroke:#FFFFFF; stroke-width:0.0000; stroke-opacity:1; 
stroke-linecap:round; stroke-linejoin:round;">
<circle cx="151.2150" cy="134.5025" r="0.1750" /> 
</g>
<g style="fill:#FFFFFF; fill-opacity:1.0000; 
stroke:#FFFFFF; stroke-width:0.0212; stroke-opacity:1; 
stroke-linecap:round; stroke-linejoin:round;">
</g>
<g style="fill:#FFFFFF; fill-opacity:1.0000; 
stroke:#FFFFFF; stroke-width:0.0000; stroke-opacity:1; 
stroke-linecap:round; stroke-linejoin:round;">
<circle cx="153.7550" cy="134.5025" r="0.1750" /> 
</g>
<g style="fill:#FFFFFF; fill-opacity:1.0000; 
stroke:#FFFFFF; stroke-width:0.0212; stroke-opacity:1; 
stroke-linecap:round; stroke-linejoin:round;">
</g>
<g style="fill:#FFFFFF; fill-opacity:1.0000; 
stroke:#FFFFFF; stroke-width:0.0000; stroke-opacity:1; 
stroke-linecap:round; stroke-linejoin:round;">
<circle cx="156.2950" cy="134.5025" r="0.1750" /> 
</g>
<g style="fill:#FFFFFF; fill-opacity:1.0000; 
stroke:#FFFFFF; stroke-width:0.0212; stroke-opacity:1; 
stroke-linecap:round; stroke-linejoin:round;">
</g>
<g style="fill:#FFFFFF; fill-opacity:1.0000; 
stroke:#FFFFFF; stroke-width:0.0000; stroke-opacity:1; 
stroke-linecap:round; stroke-linejoin:round;">
<circle cx="153.7450" cy="108.4200" r="0.1750" /> 
</g>
<g style="fill:#FFFFFF; fill-opacity:1.0000; 
stroke:#FFFFFF; stroke-width:0.0212; stroke-opacity:1; 
stroke-linecap:round; stroke-linejoin:round;">
</g>
<g style="fill:#FFFFFF; fill-opacity:1.0000; 
stroke:#FFFFFF; stroke-width:0.0000; stroke-opacity:1; 
stroke-linecap:round; stroke-linejoin:round;">
<circle cx="153.7450" cy="125.4200" r="0.1750" /> 
</g>
<g style="fill:#FFFFFF; fill-opacity:1.0000; 
stroke:#FFFFFF; stroke-width:0.0212; stroke-opacity:1; 
stroke-linecap:round; stroke-linejoin:round;">
</g>
<g style="fill:#FFFFFF; fill-opacity:1.0000; 
stroke:#FFFFFF; stroke-width:0.0000; stroke-opacity:1; 
stroke-linecap:round; stroke-linejoin:round;">
<circle cx="173.7800" cy="102.0700" r="0.1750" /> 
</g>
<g style="fill:#FFFFFF; fill-opacity:1.0000; 
stroke:#FFFFFF; stroke-width:0.0212; stroke-opacity:1; 
stroke-linecap:round; stroke-linejoin:round;">
</g>
<g style="fill:#FFFFFF; fill-opacity:1.0000; 
stroke:#FFFFFF; stroke-width:0.0000; stroke-opacity:1; 
stroke-linecap:round; stroke-linejoin:round;">
<circle cx="166.1600" cy="102.0700" r="0.1750" /> 
</g>
<g style="fill:#FFFFFF; fill-opacity:1.0000; 
stroke:#FFFFFF; stroke-width:0.0212; stroke-opacity:1; 
stroke-linecap:round; stroke-linejoin:round;">
</g>
<g style="fill:#FFFFFF; fill-opacity:1.0000; 
stroke:#FFFFFF; stroke-width:0.0000; stroke-opacity:1; 
stroke-linecap:round; stroke-linejoin:round;">
<circle cx="153.7700" cy="89.4200" r="0.1750" /> 
</g>
<g style="fill:#FFFFFF; fill-opacity:1.0000; 
stroke:#FFFFFF; stroke-width:0.0212; stroke-opacity:1; 
stroke-linecap:round; stroke-linejoin:round;">
</g>
<g style="fill:#FFFFFF; fill-opacity:1.0000; 
stroke:#FFFFFF; stroke-width:0.0000; stroke-opacity:1; 
stroke-linecap:round; stroke-linejoin:round;">
<circle cx="153.7700" cy="72.4200" r="0.1750" /> 
</g>
<g style="fill:#FFFFFF; fill-opacity:1.0000; 
stroke:#FFFFFF; stroke-width:0.0212; stroke-opacity:1; 
stroke-linecap:round; stroke-linejoin:round;">
</g>
<g style="fill:#FFFFFF; fill-opacity:1.0000; 
stroke:#FFFFFF; stroke-width:0.0000; stroke-opacity:1; 
stroke-linecap:round; stroke-linejoin:round;">
<circle cx="157.6900" cy="130.8775" r="0.1750" /> 
</g>
<g style="fill:#FFFFFF; fill-opacity:1.0000; 
stroke:#FFFFFF; stroke-width:0.0212; stroke-opacity:1; 
stroke-linecap:round; stroke-linejoin:round;">
</g>
<g style="fill:#FFFFFF; fill-opacity:1.0000; 
stroke:#FFFFFF; stroke-width:0.0000; stroke-opacity:1; 
stroke-linecap:round; stroke-linejoin:round;">
<circle cx="150.0700" cy="130.8775" r="0.1750" /> 
</g>
<g style="fill:#FFFFFF; fill-opacity:1.0000; 
stroke:#FFFFFF; stroke-width:0.0212; stroke-opacity:1; 
stroke-linecap:round; stroke-linejoin:round;">
</g>
<g style="fill:#FFFFFF; fill-opacity:1.0000; 
stroke:#FFFFFF; stroke-width:0.0000; stroke-opacity:1; 
stroke-linecap:round; stroke-linejoin:round;">
<circle cx="156.4700" cy="86.6200" r="0.1750" /> 
</g>
<g style="fill:#FFFFFF; fill-opacity:1.0000; 
stroke:#FFFFFF; stroke-width:0.0212; stroke-opacity:1; 
stroke-linecap:round; stroke-linejoin:round;">
</g>
<g style="fill:#FFFFFF; fill-opacity:1.0000; 
stroke:#FFFFFF; stroke-width:0.0000; stroke-opacity:1; 
stroke-linecap:round; stroke-linejoin:round;">
<circle cx="156.4700" cy="79.0000" r="0.1750" /> 
</g>
<g style="fill:#FFFFFF; fill-opacity:1.0000; 
stroke:#FFFFFF; stroke-width:0.0212; stroke-opacity:1; 
stroke-linecap:round; stroke-linejoin:round;">
</g>
<g style="fill:#000000; fill-opacity:1.0000; 
stroke:#000000; stroke-width:0.0212; stroke-opacity:1; 
stroke-linecap:round; stroke-linejoin:round;">
</g> 
</svg>
