<?xml version="1.0" standalone="no"?>
 <!DOCTYPE svg PUBLIC "-//W3C//DTD SVG 1.1//EN" 
 "http://www.w3.org/Graphics/SVG/1.1/DTD/svg11.dtd"> 
<svg
  xmlns:svg="http://www.w3.org/2000/svg"
  xmlns="http://www.w3.org/2000/svg"
  xmlns:xlink="http://www.w3.org/1999/xlink"
  version="1.1"
  width="297.0022mm" height="210.0072mm" viewBox="0.0000 0.0000 297.0022 210.0072">
<title>SVG Image created as SENSORES_METEOROLOGICOS-B_Cu.svg date 2024/11/05 18:03:17 </title>
  <desc>Image generated by PCBNEW </desc>
<g style="fill:#000000; fill-opacity:1.0000;stroke:#000000; stroke-opacity:1.0000;
stroke-linecap:round; stroke-linejoin:round;"
 transform="translate(0 0) scale(1 1)">
</g>
<g style="fill:#000000; fill-opacity:0.0; 
stroke:#000000; stroke-width:0.0000; stroke-opacity:1; 
stroke-linecap:round; stroke-linejoin:round;">
<g >
</g>
<g style="fill:#000000; fill-opacity:0.0; 
stroke:#000000; stroke-width:0.0000; stroke-opacity:1; 
stroke-linecap:round; stroke-linejoin:round;">
</g>
<g style="fill:#000000; fill-opacity:1.0000; 
stroke:#000000; stroke-width:0.0000; stroke-opacity:1; 
stroke-linecap:round; stroke-linejoin:round;">
<path style="fill:#000000; fill-opacity:1.0000; 
stroke:#000000; stroke-width:0.0000; stroke-opacity:1; 
stroke-linecap:round; stroke-linejoin:round;fill-rule:evenodd;"
d="M 58.9480,65.5498
58.9480,63.3502
60.4720,63.3502
60.4720,65.5498
Z" /> 
</g>
<g style="fill:#000000; fill-opacity:1.0000; 
stroke:#000000; stroke-width:1.5240; stroke-opacity:1; 
stroke-linecap:round; stroke-linejoin:round;">
</g>
<g style="fill:#000000; fill-opacity:0.0; 
stroke:#000000; stroke-width:1.5240; stroke-opacity:1; 
stroke-linecap:round; stroke-linejoin:round;">
<path d="M62.2500 64.1122
L62.2500 64.7878
" />
<path d="M64.7900 64.1122
L64.7900 64.7878
" />
</g>
<g >
</g>
<g style="fill:#000000; fill-opacity:0.0; 
stroke:#000000; stroke-width:1.5240; stroke-opacity:1; 
stroke-linecap:round; stroke-linejoin:round;">
</g>
<g style="fill:#000000; fill-opacity:0.0; 
stroke:#000000; stroke-width:0.0000; stroke-opacity:1; 
stroke-linecap:round; stroke-linejoin:round;">
</g>
<g style="fill:#000000; fill-opacity:1.0000; 
stroke:#000000; stroke-width:0.0000; stroke-opacity:1; 
stroke-linecap:round; stroke-linejoin:round;">
<path style="fill:#000000; fill-opacity:1.0000; 
stroke:#000000; stroke-width:0.0000; stroke-opacity:1; 
stroke-linecap:round; stroke-linejoin:round;fill-rule:evenodd;"
d="M 49.3870,26.1880
49.3870,27.7120
47.8630,27.7120
47.8630,26.1880
Z" /> 
<circle cx="48.6250" cy="28.9500" r="0.7620" /> 
</g>
<g style="fill:#000000; fill-opacity:1.0000; 
stroke:#000000; stroke-width:0.0212; stroke-opacity:1; 
stroke-linecap:round; stroke-linejoin:round;">
</g>
<g >
</g>
<g style="fill:#000000; fill-opacity:1.0000; 
stroke:#000000; stroke-width:0.0212; stroke-opacity:1; 
stroke-linecap:round; stroke-linejoin:round;">
</g>
<g style="fill:#000000; fill-opacity:1.0000; 
stroke:#000000; stroke-width:1.5240; stroke-opacity:1; 
stroke-linecap:round; stroke-linejoin:round;">
</g>
<g style="fill:#000000; fill-opacity:0.0; 
stroke:#000000; stroke-width:1.5240; stroke-opacity:1; 
stroke-linecap:round; stroke-linejoin:round;">
<path d="M38.3753 36.8600
L37.6997 36.8600
" />
<path d="M38.3753 39.4000
L37.6997 39.4000
" />
<path d="M38.3753 41.9400
L37.6997 41.9400
" />
<path d="M38.3753 44.4800
L37.6997 44.4800
" />
<path d="M38.3753 47.0200
L37.6997 47.0200
" />
<path d="M38.3753 49.5600
L37.6997 49.5600
" />
<path d="M38.3753 52.1000
L37.6997 52.1000
" />
<path d="M38.3753 54.6400
L37.6997 54.6400
" />
<path d="M38.3753 57.1800
L37.6997 57.1800
" />
<path d="M38.3753 59.7200
L37.6997 59.7200
" />
<path d="M38.3753 62.2600
L37.6997 62.2600
" />
<path d="M38.3753 64.8000
L37.6997 64.8000
" />
<path d="M38.3753 67.3400
L37.6997 67.3400
" />
<path d="M38.3753 69.8800
L37.6997 69.8800
" />
<path d="M38.3753 72.4200
L37.6997 72.4200
" />
<path d="M53.6153 72.4200
L52.9397 72.4200
" />
<path d="M53.6153 69.8800
L52.9397 69.8800
" />
<path d="M53.6153 67.3400
L52.9397 67.3400
" />
<path d="M53.6153 64.8000
L52.9397 64.8000
" />
<path d="M53.6140 62.2600
L52.9410 62.2600
" />
<path d="M53.6140 59.7200
L52.9410 59.7200
" />
<path d="M53.6140 57.1800
L52.9410 57.1800
" />
<path d="M53.6140 54.6400
L52.9410 54.6400
" />
<path d="M53.6140 52.1000
L52.9410 52.1000
" />
<path d="M53.6140 49.5600
L52.9410 49.5600
" />
<path d="M53.6140 47.0200
L52.9410 47.0200
" />
<path d="M53.6140 44.4800
L52.9410 44.4800
" />
<path d="M53.6140 41.9400
L52.9410 41.9400
" />
<path d="M53.6140 39.4000
L52.9410 39.4000
" />
<path d="M53.6140 36.8600
L52.9410 36.8600
" />
</g>
<g >
</g>
<g style="fill:#000000; fill-opacity:0.0; 
stroke:#000000; stroke-width:1.5240; stroke-opacity:1; 
stroke-linecap:round; stroke-linejoin:round;">
</g>
<g style="fill:#000000; fill-opacity:0.0; 
stroke:#000000; stroke-width:1.7500; stroke-opacity:1; 
stroke-linecap:round; stroke-linejoin:round;">
<path d="M59.2273 54.1600
L58.7777 54.1600
" />
<path d="M59.2273 51.6200
L58.7777 51.6200
" />
<path d="M59.2273 49.0800
L58.7777 49.0800
" />
<path d="M59.2273 46.5400
L58.7777 46.5400
" />
<path d="M59.2273 44.0000
L58.7777 44.0000
" />
</g>
<g style="fill:#000000; fill-opacity:0.0; 
stroke:#000000; stroke-width:0.0000; stroke-opacity:1; 
stroke-linecap:round; stroke-linejoin:round;">
</g>
<g style="fill:#000000; fill-opacity:1.0000; 
stroke:#000000; stroke-width:0.0000; stroke-opacity:1; 
stroke-linecap:round; stroke-linejoin:round;">
<path style="fill:#000000; fill-opacity:1.0000; 
stroke:#000000; stroke-width:0.0000; stroke-opacity:1; 
stroke-linecap:round; stroke-linejoin:round;fill-rule:evenodd;"
d="M 57.9027,40.5850
60.1023,40.5850
60.1023,42.3350
57.9027,42.3350
Z" /> 
</g>
<g >
</g>
<g style="fill:#000000; fill-opacity:1.0000; 
stroke:#000000; stroke-width:0.0000; stroke-opacity:1; 
stroke-linecap:round; stroke-linejoin:round;">
<path style="fill:#000000; fill-opacity:1.0000; 
stroke:#000000; stroke-width:0.0000; stroke-opacity:1; 
stroke-linecap:round; stroke-linejoin:round;fill-rule:evenodd;"
d="M 56.7680,58.2748
56.7680,56.0752
58.2920,56.0752
58.2920,58.2748
Z" /> 
</g>
<g style="fill:#000000; fill-opacity:1.0000; 
stroke:#000000; stroke-width:1.5240; stroke-opacity:1; 
stroke-linecap:round; stroke-linejoin:round;">
</g>
<g style="fill:#000000; fill-opacity:0.0; 
stroke:#000000; stroke-width:1.5240; stroke-opacity:1; 
stroke-linecap:round; stroke-linejoin:round;">
<path d="M60.0700 56.8372
L60.0700 57.5128
" />
<path d="M62.6100 56.8372
L62.6100 57.5128
" />
<path d="M65.1500 56.8372
L65.1500 57.5128
" />
<path d="M67.6900 56.8372
L67.6900 57.5128
" />
</g>
<g >
</g>
<g style="fill:#000000; fill-opacity:0.0; 
stroke:#000000; stroke-width:1.5240; stroke-opacity:1; 
stroke-linecap:round; stroke-linejoin:round;">
</g>
<g style="fill:#000000; fill-opacity:0.0; 
stroke:#000000; stroke-width:0.0000; stroke-opacity:1; 
stroke-linecap:round; stroke-linejoin:round;">
</g>
<g style="fill:#000000; fill-opacity:1.0000; 
stroke:#000000; stroke-width:0.0000; stroke-opacity:1; 
stroke-linecap:round; stroke-linejoin:round;">
<path style="fill:#000000; fill-opacity:1.0000; 
stroke:#000000; stroke-width:0.0000; stroke-opacity:1; 
stroke-linecap:round; stroke-linejoin:round;fill-rule:evenodd;"
d="M 68.8620,40.6380
68.8620,42.1620
67.3380,42.1620
67.3380,40.6380
Z" /> 
<circle cx="68.1000" cy="43.4000" r="0.7620" /> 
</g>
<g style="fill:#000000; fill-opacity:1.0000; 
stroke:#000000; stroke-width:0.0212; stroke-opacity:1; 
stroke-linecap:round; stroke-linejoin:round;">
</g>
<g >
</g>
<g style="fill:#000000; fill-opacity:1.0000; 
stroke:#000000; stroke-width:0.0212; stroke-opacity:1; 
stroke-linecap:round; stroke-linejoin:round;">
</g>
<g style="fill:#000000; fill-opacity:1.0000; 
stroke:#000000; stroke-width:0.0000; stroke-opacity:1; 
stroke-linecap:round; stroke-linejoin:round;">
<circle cx="42.9500" cy="26.9750" r="1.2500" /> 
</g>
<g style="fill:#000000; fill-opacity:1.0000; 
stroke:#000000; stroke-width:0.0212; stroke-opacity:1; 
stroke-linecap:round; stroke-linejoin:round;">
</g>
<g style="fill:#000000; fill-opacity:1.0000; 
stroke:#000000; stroke-width:0.0000; stroke-opacity:1; 
stroke-linecap:round; stroke-linejoin:round;">
<circle cx="37.8700" cy="26.9750" r="1.2500" /> 
</g>
<g style="fill:#000000; fill-opacity:1.0000; 
stroke:#000000; stroke-width:0.0212; stroke-opacity:1; 
stroke-linecap:round; stroke-linejoin:round;">
</g>
<g >
</g>
<g style="fill:#000000; fill-opacity:1.0000; 
stroke:#000000; stroke-width:0.0212; stroke-opacity:1; 
stroke-linecap:round; stroke-linejoin:round;">
</g>
<g style="fill:#000000; fill-opacity:1.0000; 
stroke:#000000; stroke-width:0.0000; stroke-opacity:1; 
stroke-linecap:round; stroke-linejoin:round;">
<path style="fill:#000000; fill-opacity:1.0000; 
stroke:#000000; stroke-width:0.0000; stroke-opacity:1; 
stroke-linecap:round; stroke-linejoin:round;fill-rule:evenodd;"
d="M 50.9800,77.6250
50.9800,79.8250
49.2300,79.8250
49.2300,77.6250
Z" /> 
</g>
<g style="fill:#000000; fill-opacity:1.0000; 
stroke:#000000; stroke-width:1.7500; stroke-opacity:1; 
stroke-linecap:round; stroke-linejoin:round;">
</g>
<g style="fill:#000000; fill-opacity:0.0; 
stroke:#000000; stroke-width:1.7500; stroke-opacity:1; 
stroke-linecap:round; stroke-linejoin:round;">
<path d="M47.5650 78.9500
L47.5650 78.5000
" />
<path d="M45.0250 78.9500
L45.0250 78.5000
" />
<path d="M42.4850 78.9500
L42.4850 78.5000
" />
</g>
<g >
</g>
<g style="fill:#000000; fill-opacity:0.0; 
stroke:#000000; stroke-width:1.7500; stroke-opacity:1; 
stroke-linecap:round; stroke-linejoin:round;">
</g>
<g style="fill:#000000; fill-opacity:0.0; 
stroke:#000000; stroke-width:0.0000; stroke-opacity:1; 
stroke-linecap:round; stroke-linejoin:round;">
</g>
<g style="fill:#000000; fill-opacity:1.0000; 
stroke:#000000; stroke-width:0.0000; stroke-opacity:1; 
stroke-linecap:round; stroke-linejoin:round;">
<path style="fill:#000000; fill-opacity:1.0000; 
stroke:#000000; stroke-width:0.0000; stroke-opacity:1; 
stroke-linecap:round; stroke-linejoin:round;fill-rule:evenodd;"
d="M 34.7900,42.8050
32.5900,42.8050
32.5900,41.0550
34.7900,41.0550
Z" /> 
</g>
<g style="fill:#000000; fill-opacity:1.0000; 
stroke:#000000; stroke-width:1.7500; stroke-opacity:1; 
stroke-linecap:round; stroke-linejoin:round;">
</g>
<g style="fill:#000000; fill-opacity:0.0; 
stroke:#000000; stroke-width:1.7500; stroke-opacity:1; 
stroke-linecap:round; stroke-linejoin:round;">
<path d="M33.4650 39.3900
L33.9150 39.3900
" />
<path d="M33.4650 36.8500
L33.9150 36.8500
" />
<path d="M33.4650 34.3100
L33.9150 34.3100
" />
</g>
<g >
</g>
<g style="fill:#000000; fill-opacity:0.0; 
stroke:#000000; stroke-width:1.7500; stroke-opacity:1; 
stroke-linecap:round; stroke-linejoin:round;">
</g>
<g style="fill:#000000; fill-opacity:0.0; 
stroke:#000000; stroke-width:0.0000; stroke-opacity:1; 
stroke-linecap:round; stroke-linejoin:round;">
</g>
<g style="fill:#000000; fill-opacity:1.0000; 
stroke:#000000; stroke-width:0.0000; stroke-opacity:1; 
stroke-linecap:round; stroke-linejoin:round;">
<path style="fill:#000000; fill-opacity:1.0000; 
stroke:#000000; stroke-width:0.0000; stroke-opacity:1; 
stroke-linecap:round; stroke-linejoin:round;fill-rule:evenodd;"
d="M 58.7200,23.2500
58.8157,23.2690
58.8968,23.3232
58.9510,23.4043
58.9700,23.5000
58.9700,27.6000
58.9510,27.6957
58.8968,27.7768
58.8157,27.8310
58.7200,27.8500
58.1200,27.8500
58.0243,27.8310
57.9432,27.7768
57.8890,27.6957
57.8700,27.6000
57.8700,23.5000
57.8890,23.4043
57.9432,23.3232
58.0243,23.2690
58.1200,23.2500
Z" /> 
<path style="fill:#000000; fill-opacity:1.0000; 
stroke:#000000; stroke-width:0.0000; stroke-opacity:1; 
stroke-linecap:round; stroke-linejoin:round;fill-rule:evenodd;"
d="M 66.1100,30.0000
66.2057,30.0190
66.2868,30.0732
66.3410,30.1543
66.3600,30.2500
66.3600,34.3000
66.3410,34.3957
66.2868,34.4768
66.2057,34.5310
66.1100,34.5500
61.3600,34.5500
61.2643,34.5310
61.1832,34.4768
61.1290,34.3957
61.1100,34.3000
61.1100,30.2500
61.1290,30.1543
61.1832,30.0732
61.2643,30.0190
61.3600,30.0000
Z" /> 
<path style="fill:#000000; fill-opacity:1.0000; 
stroke:#000000; stroke-width:0.0000; stroke-opacity:1; 
stroke-linecap:round; stroke-linejoin:round;fill-rule:evenodd;"
d="M 60.5600,30.0000
60.6557,30.0190
60.7368,30.0732
60.7910,30.1543
60.8100,30.2500
60.8100,34.3000
60.7910,34.3957
60.7368,34.4768
60.6557,34.5310
60.5600,34.5500
55.8100,34.5500
55.7143,34.5310
55.6332,34.4768
55.5790,34.3957
55.5600,34.3000
55.5600,30.2500
55.5790,30.1543
55.6332,30.0732
55.7143,30.0190
55.8100,30.0000
Z" /> 
<path style="fill:#000000; fill-opacity:1.0000; 
stroke:#000000; stroke-width:0.0000; stroke-opacity:1; 
stroke-linecap:round; stroke-linejoin:round;fill-rule:evenodd;"
d="M 66.1100,30.0000
66.2057,30.0190
66.2868,30.0732
66.3410,30.1543
66.3600,30.2500
66.3600,39.1500
66.3410,39.2457
66.2868,39.3268
66.2057,39.3810
66.1100,39.4000
55.8100,39.4000
55.7143,39.3810
55.6332,39.3268
55.5790,39.2457
55.5600,39.1500
55.5600,30.2500
55.5790,30.1543
55.6332,30.0732
55.7143,30.0190
55.8100,30.0000
Z" /> 
<path style="fill:#000000; fill-opacity:1.0000; 
stroke:#000000; stroke-width:0.0000; stroke-opacity:1; 
stroke-linecap:round; stroke-linejoin:round;fill-rule:evenodd;"
d="M 66.1100,34.8500
66.2057,34.8690
66.2868,34.9232
66.3410,35.0043
66.3600,35.1000
66.3600,39.1500
66.3410,39.2457
66.2868,39.3268
66.2057,39.3810
66.1100,39.4000
61.3600,39.4000
61.2643,39.3810
61.1832,39.3268
61.1290,39.2457
61.1100,39.1500
61.1100,35.1000
61.1290,35.0043
61.1832,34.9232
61.2643,34.8690
61.3600,34.8500
Z" /> 
<path style="fill:#000000; fill-opacity:1.0000; 
stroke:#000000; stroke-width:0.0000; stroke-opacity:1; 
stroke-linecap:round; stroke-linejoin:round;fill-rule:evenodd;"
d="M 60.5600,34.8500
60.6557,34.8690
60.7368,34.9232
60.7910,35.0043
60.8100,35.1000
60.8100,39.1500
60.7910,39.2457
60.7368,39.3268
60.6557,39.3810
60.5600,39.4000
55.8100,39.4000
55.7143,39.3810
55.6332,39.3268
55.5790,39.2457
55.5600,39.1500
55.5600,35.1000
55.5790,35.0043
55.6332,34.9232
55.7143,34.8690
55.8100,34.8500
Z" /> 
<path style="fill:#000000; fill-opacity:1.0000; 
stroke:#000000; stroke-width:0.0000; stroke-opacity:1; 
stroke-linecap:round; stroke-linejoin:round;fill-rule:evenodd;"
d="M 63.8000,23.2500
63.8957,23.2690
63.9768,23.3232
64.0310,23.4043
64.0500,23.5000
64.0500,27.6000
64.0310,27.6957
63.9768,27.7768
63.8957,27.8310
63.8000,27.8500
63.2000,27.8500
63.1043,27.8310
63.0232,27.7768
62.9690,27.6957
62.9500,27.6000
62.9500,23.5000
62.9690,23.4043
63.0232,23.3232
63.1043,23.2690
63.2000,23.2500
Z" /> 
</g>
<g >
</g>
<g style="fill:#000000; fill-opacity:1.0000; 
stroke:#000000; stroke-width:0.0000; stroke-opacity:1; 
stroke-linecap:round; stroke-linejoin:round;">
<path style="fill:#000000; fill-opacity:1.0000; 
stroke:#000000; stroke-width:0.0000; stroke-opacity:1; 
stroke-linecap:round; stroke-linejoin:round;fill-rule:evenodd;"
d="M 59.2719,61.0767
59.2719,59.2733
60.8721,59.2733
60.8721,61.0767
Z" /> 
<path style="fill:#000000; fill-opacity:1.0000; 
stroke:#000000; stroke-width:0.0000; stroke-opacity:1; 
stroke-linecap:round; stroke-linejoin:round;fill-rule:evenodd;"
d="M 56.4779,61.0767
56.4779,59.2733
58.0781,59.2733
58.0781,61.0767
Z" /> 
</g>
<g >
</g>
<g >
</g>
<g style="fill:#000000; fill-opacity:1.0000; 
stroke:#000000; stroke-width:0.0000; stroke-opacity:1; 
stroke-linecap:round; stroke-linejoin:round;">
</g>
<g style="fill:#000000; fill-opacity:1.0000; 
stroke:#000000; stroke-width:1.0000; stroke-opacity:1; 
stroke-linecap:round; stroke-linejoin:round;">
</g>
<g style="fill:#000000; fill-opacity:0.0; 
stroke:#000000; stroke-width:1.0000; stroke-opacity:1; 
stroke-linecap:round; stroke-linejoin:round;">
<path d="M33.6900 81.8650
L33.6900 41.9300
" />
<path d="M34.1000 82.2750
L33.6900 81.8650
" />
<path d="M47.7250 82.2750
L34.1000 82.2750
" />
<path d="M53.2775 54.6400
L55.9325 54.6400
" />
<path d="M55.9325 54.6400
L56.4125 54.1600
" />
<path d="M56.4125 54.1600
L59.0025 54.1600
" />
<path d="M53.2775 52.1000
L55.8225 52.1000
" />
<path d="M55.8225 52.1000
L56.3025 51.6200
" />
<path d="M56.3025 51.6200
L59.0025 51.6200
" />
<path d="M55.9875 49.5600
L56.4675 49.0800
" />
<path d="M56.4675 49.0800
L59.0025 49.0800
" />
<path d="M53.2775 49.5600
L55.9875 49.5600
" />
<path d="M53.2775 47.0200
L55.5525 47.0200
" />
<path d="M55.5525 47.0200
L56.0325 46.5400
" />
<path d="M56.0325 46.5400
L59.0025 46.5400
" />
<path d="M59.0025 41.4600
L68.0400 41.4600
" />
<path d="M68.0400 41.4600
L68.1000 41.4000
" />
<path d="M70.0250 41.4500
L70.0250 57.2750
" />
<path d="M53.2775 36.8600
L53.2775 25.6275
" />
<path d="M33.7100 39.3900
L33.7000 39.4000
" />
<path d="M38.0275 39.3900
L33.7100 39.3900
" />
<path d="M38.0375 39.4000
L38.0275 39.3900
" />
<path d="M38.0375 36.8600
L33.7000 36.8600
" />
</g>
<g style="fill:#000000; fill-opacity:0.0; 
stroke:#000000; stroke-width:0.2500; stroke-opacity:1; 
stroke-linecap:round; stroke-linejoin:round;">
<path d="M53.2775 25.6275
L53.7800 25.1250
" />
</g>
<g style="fill:#000000; fill-opacity:0.0; 
stroke:#000000; stroke-width:1.0000; stroke-opacity:1; 
stroke-linecap:round; stroke-linejoin:round;">
<path d="M53.7800 25.1250
L49.3750 25.1250
" />
<path d="M57.9950 25.1250
L53.7800 25.1250
" />
</g>
<g style="fill:#000000; fill-opacity:0.0; 
stroke:#000000; stroke-width:0.2500; stroke-opacity:1; 
stroke-linecap:round; stroke-linejoin:round;">
<path d="M33.7000 39.4000
L33.6900 39.3900
" />
<path d="M33.7000 36.8600
L33.6900 36.8500
" />
</g>
<g style="fill:#000000; fill-opacity:0.0; 
stroke:#000000; stroke-width:1.0000; stroke-opacity:1; 
stroke-linecap:round; stroke-linejoin:round;">
<path d="M38.0225 67.3250
L38.0375 67.3400
" />
<path d="M38.0225 69.8650
L38.0375 69.8800
" />
<path d="M42.4850 48.1600
L41.3450 47.0200
" />
<path d="M41.3450 47.0200
L38.0375 47.0200
" />
<path d="M42.4850 78.7250
L42.4850 48.1600
" />
<path d="M42.9500 26.9750
L48.6000 26.9750
" />
<path d="M48.6000 26.9750
L48.6250 26.9500
" />
<path d="M49.3750 25.1250
L48.6250 25.8750
" />
<path d="M48.6250 25.8750
L48.6250 26.9500
" />
<path d="M53.2975 64.8200
L53.2775 64.8000
" />
<path d="M45.0250 65.0325
L45.2575 64.8000
" />
<path d="M45.0250 78.7250
L45.0250 65.0325
" />
<path d="M45.2575 64.8000
L53.2775 64.8000
" />
<path d="M63.5000 25.5500
L66.7000 25.5500
" />
<path d="M70.0250 57.2750
L70.0250 62.0250
" />
<path d="M70.0250 64.7750
L70.0250 76.7750
" />
<path d="M47.5650 82.1150
L47.7250 82.2750
" />
<path d="M64.5250 82.2750
L47.7250 82.2750
" />
<path d="M47.5650 78.7250
L47.5650 82.1150
" />
<path d="M68.1000 26.9500
L68.1000 41.4000
" />
<path d="M70.0250 76.7750
L64.5250 82.2750
" />
<path d="M66.7000 25.5500
L68.1000 26.9500
" />
<path d="M69.9750 41.4000
L70.0250 41.4500
" />
<path d="M64.7900 64.4500
L69.7000 64.4500
" />
<path d="M70.0250 62.0250
L70.0250 64.7750
" />
<path d="M69.9250 57.1750
L70.0250 57.2750
" />
<path d="M68.1000 41.4000
L69.9750 41.4000
" />
<path d="M67.6900 57.1750
L69.9250 57.1750
" />
<path d="M48.1175 78.7400
L48.1375 78.7200
" />
<path d="M69.7000 64.4500
L70.0250 64.7750
" />
<path d="M57.9250 64.4500
L59.7100 64.4500
" />
<path d="M55.7350 62.2600
L57.9250 64.4500
" />
<path d="M53.2775 62.2600
L55.7350 62.2600
" />
<path d="M55.4700 59.7200
L55.9250 60.1750
" />
<path d="M53.2775 59.7200
L55.4700 59.7200
" />
<path d="M55.9250 60.1750
L57.2780 60.1750
" />
<path d="M53.2775 57.1800
L57.5250 57.1800
" />
<path d="M57.5250 57.1800
L57.5300 57.1750
" />
<path d="M60.0720 57.1770
L60.0700 57.1750
" />
<path d="M60.0720 60.1750
L60.0720 57.1770
" />
</g>
<g >
</g>
<g style="fill:#000000; fill-opacity:0.0; 
stroke:#000000; stroke-width:1.0000; stroke-opacity:1; 
stroke-linecap:round; stroke-linejoin:round;">
<g >
</g>
<g style="fill:#000000; fill-opacity:1.0000; 
stroke:#000000; stroke-width:0.0000; stroke-opacity:1; 
stroke-linecap:round; stroke-linejoin:round;">
<path style="fill:#000000; fill-opacity:1.0000; 
stroke:#000000; stroke-width:0.0000; stroke-opacity:1; 
stroke-linecap:round; stroke-linejoin:round;fill-rule:evenodd;"
d="M 56.8642,23.0202
56.9099,23.0730
56.9199,23.1421
56.9174,23.1548
56.8799,23.3036
56.8799,23.3036
56.8695,23.4358
56.8695,23.5005
56.8498,23.5675
56.7970,23.6133
56.7455,23.6245
49.4720,23.6245
49.4643,23.6240
49.4413,23.6212
49.4372,23.6206
49.4372,23.6206
49.3440,23.6245
49.3129,23.6245
49.2882,23.6265
49.2820,23.6271
49.1888,23.6309
49.1620,23.6365
49.1544,23.6376
49.1272,23.6399
49.0550,23.6582
49.0367,23.6628
49.0166,23.6670
48.9454,23.6819
48.9454,23.6820
48.9199,23.6919
48.9126,23.6942
48.8861,23.7009
48.8007,23.7384
48.7137,23.7723
48.7137,23.7723
48.6902,23.7863
48.6834,23.7899
48.6584,23.8008
48.6584,23.8008
48.5803,23.8519
48.5001,23.8996
48.4793,23.9173
48.4731,23.9219
48.4502,23.9368
48.4146,23.9696
48.3816,24.0000
48.3624,24.0163
48.3579,24.0201
48.3359,24.0420
48.2673,24.1053
48.2505,24.1268
48.2454,24.1326
47.6326,24.7454
47.6268,24.7505
47.6053,24.7673
47.5420,24.8359
47.5201,24.8579
47.5201,24.8579
47.5000,24.8816
47.4696,24.9146
47.4368,24.9502
47.4219,24.9731
47.4173,24.9793
47.3996,25.0001
47.3519,25.0803
47.3008,25.1584
47.3008,25.1584
47.2899,25.1834
47.2863,25.1902
47.2723,25.2137
47.2723,25.2137
47.2384,25.3007
47.2009,25.3861
47.1993,25.3908
47.1589,25.4478
47.0941,25.4739
47.0821,25.4745
44.6836,25.4745
44.6166,25.4548
44.5904,25.4323
44.5448,25.3803
44.5448,25.3802
44.3230,25.1857
44.3230,25.1857
44.3230,25.1857
44.0777,25.0218
44.0777,25.0218
43.8131,24.8913
43.5337,24.7965
43.5337,24.7965
43.5337,24.7965
43.2444,24.7390
43.2444,24.7390
43.2444,24.7390
42.9500,24.7197
42.9500,24.7197
42.6556,24.7390
42.6556,24.7390
42.6556,24.7390
42.6556,24.7390
42.6556,24.7390
42.3663,24.7965
42.3663,24.7965
42.0869,24.8913
41.8223,25.0218
41.5770,25.1857
41.3552,25.3802
41.1607,25.6020
40.9968,25.8473
40.8663,26.1119
40.7715,26.3913
40.7715,26.3913
40.7140,26.6806
40.7140,26.6806
40.6947,26.9750
40.6947,26.9750
40.7140,27.2694
40.7140,27.2694
40.7140,27.2694
40.7140,27.2694
40.7715,27.5587
40.7715,27.5587
40.8663,27.8381
40.9968,28.1027
40.9968,28.1027
41.1607,28.3480
41.3552,28.5698
41.5770,28.7643
41.8223,28.9282
41.8223,28.9282
42.0869,29.0587
42.3663,29.1535
42.6556,29.2110
42.6839,29.2129
42.9500,29.2303
42.9500,29.2303
42.9500,29.2303
43.1857,29.2149
43.2444,29.2110
43.5337,29.1535
43.8131,29.0587
44.0777,28.9282
44.3230,28.7643
44.5448,28.5698
44.5904,28.5177
44.6494,28.4803
44.6836,28.4755
47.1720,28.4755
47.2390,28.4952
47.2504,28.5034
47.3096,28.5517
47.4900,28.6459
47.6856,28.7019
47.8050,28.7125
47.8050,28.7125
47.8050,28.7125
47.8050,28.7125
48.5060,28.7125
49.4450,28.7125
49.5644,28.7019
49.7600,28.6459
49.9404,28.5517
50.0981,28.4231
50.2267,28.2654
50.3209,28.0850
50.3769,27.8894
50.3875,27.7700
50.3875,26.7495
50.4072,26.6825
50.4600,26.6367
50.5115,26.6255
51.6530,26.6255
51.7200,26.6452
51.7658,26.6980
51.7770,26.7495
51.7770,35.4748
51.7573,35.5419
51.7416,35.5606
51.7419,35.5610
51.7388,35.5644
51.7388,35.5644
51.6931,35.6136
51.5591,35.7580
51.4103,35.9763
51.4103,35.9763
51.2957,36.2143
51.2178,36.4667
51.2178,36.4667
51.1784,36.7279
51.1784,36.9921
51.2178,37.2533
51.2178,37.2533
51.2957,37.5057
51.4103,37.7437
51.4103,37.7437
51.4103,37.7437
51.4103,37.7437
51.5470,37.9442
51.5591,37.9620
51.7388,38.1556
51.7388,38.1556
51.7388,38.1556
51.9453,38.3203
52.1741,38.4524
52.4200,38.5489
52.4200,38.5489
52.6775,38.6077
52.8750,38.6225
52.8750,38.6225
53.6800,38.6225
53.8493,38.6098
53.8775,38.6077
54.1350,38.5489
54.3809,38.4524
54.6097,38.3203
54.8162,38.1556
54.9959,37.9620
55.1447,37.7437
55.2593,37.5057
55.3372,37.2533
55.3465,37.1916
55.3765,36.9921
55.3765,36.9921
55.3765,36.7279
55.3765,36.7279
55.3372,36.4667
55.3372,36.4667
55.2593,36.2143
55.2473,36.1893
55.1447,35.9763
55.1447,35.9763
55.1447,35.9763
55.1447,35.9763
54.9959,35.7580
54.8162,35.5644
54.8162,35.5644
54.8131,35.5610
54.8142,35.5599
54.7819,35.5057
54.7780,35.4748
54.7780,26.7495
54.7977,26.6825
54.8505,26.6367
54.9020,26.6255
56.7455,26.6255
56.8125,26.6452
56.8583,26.6980
56.8695,26.7495
56.8695,27.6642
56.8799,27.7964
56.8799,27.7964
56.9349,28.0147
56.9349,28.0147
57.0280,28.2196
57.0280,28.2196
57.1562,28.4046
57.1562,28.4047
57.1562,28.4047
57.3153,28.5638
57.3153,28.5638
57.3154,28.5638
57.3239,28.5698
57.5004,28.6920
57.7053,28.7851
57.7053,28.7851
57.9236,28.8401
57.9236,28.8401
57.9236,28.8401
58.0350,28.8489
58.0558,28.8505
58.0558,28.8505
58.0558,28.8505
58.4197,28.8505
58.7842,28.8505
58.8035,28.8490
58.9164,28.8401
59.1347,28.7851
59.3396,28.6920
59.5247,28.5638
59.6838,28.4047
59.8120,28.2196
59.9051,28.0147
59.9601,27.7964
59.9705,27.6642
59.9705,23.4358
59.9601,23.3036
59.9226,23.1548
59.9253,23.0850
59.9653,23.0277
60.0300,23.0012
60.0428,23.0005
61.8772,23.0005
61.9442,23.0202
61.9899,23.0730
61.9999,23.1421
61.9974,23.1548
61.9599,23.3036
61.9599,23.3036
61.9495,23.4358
61.9495,27.6642
61.9599,27.7964
61.9599,27.7964
62.0149,28.0147
62.0149,28.0147
62.1080,28.2196
62.1080,28.2196
62.2362,28.4046
62.2362,28.4047
62.2362,28.4047
62.3953,28.5638
62.3954,28.5638
62.3954,28.5638
62.4039,28.5698
62.5804,28.6920
62.7853,28.7851
62.7853,28.7851
63.0036,28.8401
63.0036,28.8401
63.0036,28.8401
63.1150,28.8489
63.1358,28.8505
63.1358,28.8505
63.1358,28.8505
63.4998,28.8505
63.8642,28.8505
63.8835,28.8490
63.9964,28.8401
64.2147,28.7851
64.4196,28.6920
64.6047,28.5638
64.7638,28.4047
64.8920,28.2196
64.9851,28.0147
65.0401,27.7964
65.0505,27.6642
65.0505,27.1745
65.0702,27.1075
65.1230,27.0617
65.1745,27.0505
66.0271,27.0505
66.0941,27.0702
66.1148,27.0868
66.5632,27.5352
66.5967,27.5965
66.5995,27.6229
66.5995,39.8355
66.5798,39.9025
66.5270,39.9483
66.4755,39.9595
60.9421,39.9595
60.8751,39.9398
60.8460,39.9139
60.8134,39.8739
60.6557,39.7453
60.6557,39.7453
60.6557,39.7453
60.4754,39.6511
60.4754,39.6511
60.4754,39.6511
60.3581,39.6176
60.2797,39.5951
60.2797,39.5951
60.2797,39.5951
60.1893,39.5871
60.1604,39.5845
60.1604,39.5845
60.1604,39.5845
59.1650,39.5845
57.8446,39.5845
57.8154,39.5871
57.7253,39.5951
57.5296,39.6511
57.4395,39.6982
57.3493,39.7453
57.3493,39.7453
57.3493,39.7453
57.1916,39.8739
57.0910,39.9972
57.0630,40.0316
57.0474,40.0613
56.9688,40.2120
56.9273,40.3567
56.9145,40.4015
56.9128,40.4076
56.9128,40.4076
56.9105,40.4329
56.9023,40.5252
56.9022,40.5270
56.9022,40.5270
56.9022,42.3930
56.9022,42.3930
56.9128,42.5124
56.9688,42.7080
56.9688,42.7080
56.9688,42.7080
57.0630,42.8884
57.0630,42.8884
57.1916,43.0461
57.2526,43.0959
57.3493,43.1747
57.5296,43.2689
57.7253,43.3249
57.8446,43.3355
57.8446,43.3355
57.8446,43.3355
57.8446,43.3355
58.8373,43.3355
60.1604,43.3355
60.2797,43.3249
60.4754,43.2689
60.6557,43.1747
60.8134,43.0461
60.8134,43.0461
60.8460,43.0061
60.9036,42.9666
60.9421,42.9605
66.6899,42.9605
66.7570,42.9802
66.7683,42.9884
66.7846,43.0017
66.9650,43.0959
67.1606,43.1519
67.2800,43.1625
67.2800,43.1625
67.2800,43.1625
67.2800,43.1625
67.2800,43.1625
68.4005,43.1625
68.4675,43.1822
68.5133,43.2350
68.5245,43.2865
68.5245,55.0855
68.5048,55.1525
68.4520,55.1983
68.3829,55.2082
68.3467,55.1972
68.3357,55.1919
68.0833,55.1141
68.0833,55.1140
67.8221,55.0747
67.8221,55.0747
67.5579,55.0747
67.5579,55.0747
67.2967,55.1140
67.2967,55.1141
67.0443,55.1919
66.8063,55.3065
66.8063,55.3065
66.5880,55.4553
66.5043,55.5330
66.4418,55.5641
66.3724,55.5566
66.3357,55.5330
66.2520,55.4553
66.0337,55.3065
66.0337,55.3065
66.0337,55.3065
66.0337,55.3065
65.7957,55.1919
65.7957,55.1919
65.5433,55.1141
65.5433,55.1140
65.2821,55.0747
65.2821,55.0747
65.0179,55.0747
65.0179,55.0747
64.7567,55.1140
64.7567,55.1141
64.5043,55.1919
64.2663,55.3065
64.2663,55.3065
64.0480,55.4553
63.8544,55.6350
63.6897,55.8415
63.5576,56.0703
63.5576,56.0703
63.4611,56.3162
63.4611,56.3162
63.4023,56.5738
63.4023,56.5738
63.3875,56.7712
63.3875,57.5788
63.4023,57.7762
63.4023,57.7762
63.4611,58.0338
63.4611,58.0338
63.5576,58.2797
63.6897,58.5085
63.7493,58.5833
63.8544,58.7150
64.0372,58.8846
64.0480,58.8947
64.2663,59.0435
64.2663,59.0435
64.2663,59.0435
64.2663,59.0435
64.3751,59.0959
64.5043,59.1581
64.5043,59.1581
64.5043,59.1581
64.7567,59.2359
64.7567,59.2359
64.7567,59.2359
65.0179,59.2753
65.0179,59.2753
65.0179,59.2753
65.0179,59.2753
65.2821,59.2753
65.2821,59.2753
65.2821,59.2753
65.5433,59.2359
65.5433,59.2359
65.5433,59.2359
65.7957,59.1581
66.0337,59.0435
66.2520,58.8947
66.3357,58.8170
66.3982,58.7859
66.4676,58.7934
66.5043,58.8170
66.5880,58.8947
66.8063,59.0435
66.8063,59.0435
66.8063,59.0435
66.8063,59.0435
66.9151,59.0959
67.0443,59.1581
67.0443,59.1581
67.0443,59.1581
67.2967,59.2359
67.2967,59.2359
67.2967,59.2359
67.5579,59.2753
67.5579,59.2753
67.5579,59.2753
67.5579,59.2753
67.8221,59.2753
67.8221,59.2753
67.8221,59.2753
68.0833,59.2359
68.0833,59.2359
68.0833,59.2359
68.3357,59.1581
68.3467,59.1528
68.4156,59.1414
68.4798,59.1692
68.5187,59.2272
68.5245,59.2645
68.5245,62.8255
68.5048,62.8925
68.4520,62.9383
68.4005,62.9495
66.1764,62.9495
66.1093,62.9298
66.0892,62.9130
66.0890,62.9132
65.8920,62.7303
65.7790,62.6533
65.6737,62.5815
65.6737,62.5815
65.6737,62.5815
65.6737,62.5815
65.4357,62.4669
65.4357,62.4669
65.1833,62.3891
65.1833,62.3890
64.9221,62.3497
64.9221,62.3497
64.6579,62.3497
64.6579,62.3497
64.3967,62.3890
64.3967,62.3891
64.1443,62.4669
63.9063,62.5815
63.9063,62.5815
63.6880,62.7303
63.4944,62.9100
63.3297,63.1165
63.1976,63.3453
63.1976,63.3453
63.1011,63.5912
63.1011,63.5912
63.0423,63.8488
63.0423,63.8488
63.0275,64.0462
63.0275,64.8538
63.0423,65.0512
63.0423,65.0512
63.1011,65.3088
63.1011,65.3088
63.1891,65.5329
63.1976,65.5547
63.3297,65.7835
63.4408,65.9229
63.4944,65.9900
63.6041,66.0918
63.6880,66.1697
63.9063,66.3185
63.9063,66.3185
63.9063,66.3185
63.9063,66.3185
64.0327,66.3793
64.1443,66.4331
64.1443,66.4331
64.1443,66.4331
64.3967,66.5109
64.3967,66.5109
64.3967,66.5109
64.6579,66.5503
64.6579,66.5503
64.6579,66.5503
64.6579,66.5503
64.9221,66.5503
64.9221,66.5503
64.9221,66.5503
65.1833,66.5109
65.1833,66.5109
65.1833,66.5109
65.4357,66.4331
65.6737,66.3185
65.8920,66.1697
66.0507,66.0224
66.0890,65.9868
66.0898,65.9876
66.1455,65.9544
66.1764,65.9505
68.4005,65.9505
68.4675,65.9702
68.5133,66.0230
68.5245,66.0745
68.5245,76.1021
68.5048,76.1691
68.4882,76.1898
63.9398,80.7382
63.8785,80.7717
63.8521,80.7745
49.1895,80.7745
49.1225,80.7548
49.0767,80.7020
49.0655,80.6505
49.0655,80.3856
49.0655,80.1184
49.0852,80.0513
49.0860,80.0500
49.2049,79.8704
49.2913,79.6860
49.3090,79.6585
49.3629,79.5949
49.4902,79.3813
49.5805,79.1496
49.6316,78.9062
49.6419,78.6578
49.6111,78.4110
49.5566,78.2280
49.5401,78.1727
49.4309,77.9493
49.4309,77.9493
49.2925,77.7554
49.2776,77.7276
49.2677,77.7018
49.1333,77.4624
49.0841,77.3987
48.9656,77.2451
48.9655,77.2451
48.7679,77.0545
48.7679,77.0545
48.6375,76.9612
48.5446,76.8948
48.4384,76.8402
48.3005,76.7693
48.3005,76.7693
48.0407,76.6806
48.0406,76.6806
47.7707,76.6308
47.7707,76.6308
47.4963,76.6207
47.2234,76.6508
47.2234,76.6508
46.9578,76.7202
46.7010,76.8293
46.7005,76.8281
46.6376,76.8402
46.5727,76.8141
46.5323,76.7572
46.5255,76.7168
46.5255,66.4245
46.5452,66.3575
46.5980,66.3117
46.6495,66.3005
51.2867,66.3005
51.3537,66.3202
51.3995,66.3730
51.4094,66.4421
51.3984,66.4783
51.2944,66.6943
51.2166,66.9467
51.2165,66.9467
51.1772,67.2079
51.1772,67.4721
51.2165,67.7333
51.2166,67.7333
51.2944,67.9857
51.4090,68.2237
51.4090,68.2237
51.4090,68.2237
51.4090,68.2237
51.5578,68.4420
51.6355,68.5257
51.6666,68.5882
51.6591,68.6576
51.6355,68.6943
51.5578,68.7780
51.4090,68.9963
51.4090,68.9963
51.2944,69.2343
51.2166,69.4867
51.2165,69.4867
51.1772,69.7479
51.1772,70.0121
51.2165,70.2733
51.2166,70.2733
51.2944,70.5257
51.4090,70.7637
51.4090,70.7637
51.4090,70.7637
51.4090,70.7637
51.5578,70.9820
51.6355,71.0657
51.6666,71.1282
51.6591,71.1976
51.6355,71.2343
51.5578,71.3180
51.4090,71.5363
51.4090,71.5363
51.2944,71.7743
51.2166,72.0267
51.2165,72.0267
51.1772,72.2879
51.1772,72.5521
51.2165,72.8133
51.2166,72.8133
51.2944,73.0657
51.4090,73.3037
51.4090,73.3037
51.4090,73.3037
51.4090,73.3037
51.5578,73.5220
51.7375,73.7156
51.7375,73.7156
51.7375,73.7156
51.9440,73.8803
52.1728,74.0124
52.4187,74.1089
52.4187,74.1089
52.6763,74.1677
52.8737,74.1825
52.8737,74.1825
53.6813,74.1825
53.8505,74.1698
53.8787,74.1677
54.1363,74.1089
54.3822,74.0124
54.6110,73.8803
54.8175,73.7156
54.9972,73.5220
55.1460,73.3037
55.2606,73.0657
55.3384,72.8133
55.3778,72.5521
55.3778,72.2879
55.3384,72.0267
55.2606,71.7743
55.2486,71.7493
55.1460,71.5363
55.1460,71.5363
55.1460,71.5363
55.1460,71.5363
54.9972,71.3180
54.9195,71.2343
54.8884,71.1718
54.8959,71.1024
54.9195,71.0657
54.9972,70.9820
55.1460,70.7637
55.2606,70.5257
55.3384,70.2733
55.3778,70.0121
55.3778,69.7479
55.3384,69.4867
55.2606,69.2343
55.2486,69.2093
55.1460,68.9963
55.1460,68.9963
55.1460,68.9963
55.1460,68.9963
54.9972,68.7780
54.9195,68.6943
54.8884,68.6318
54.8959,68.5624
54.9195,68.5257
54.9972,68.4420
55.1460,68.2237
55.2606,67.9857
55.3384,67.7333
55.3778,67.4721
55.3778,67.2079
55.3384,66.9467
55.2606,66.6943
55.2486,66.6693
55.1460,66.4563
55.1460,66.4563
55.1460,66.4563
55.1460,66.4563
54.9972,66.2380
54.9195,66.1543
54.8884,66.0918
54.8959,66.0224
54.9195,65.9857
54.9972,65.9020
55.1460,65.6837
55.2606,65.4457
55.3384,65.1933
55.3599,65.0512
55.3778,64.9321
55.3778,64.9321
55.3778,64.6679
55.3778,64.6679
55.3384,64.4067
55.3384,64.4067
55.2979,64.2754
55.2970,64.2055
55.3340,64.1462
55.3971,64.1163
55.4664,64.1253
55.5041,64.1511
56.7954,65.4424
56.8005,65.4482
56.8173,65.4697
56.8173,65.4697
56.8173,65.4697
56.8859,65.5329
56.9077,65.5547
56.9079,65.5549
56.9316,65.5750
57.0002,65.6382
57.0002,65.6382
57.0002,65.6382
57.0231,65.6531
57.0292,65.6577
57.0501,65.6754
57.0940,65.7015
57.1303,65.7231
57.2026,65.7704
57.2084,65.7742
57.2296,65.7835
57.2334,65.7852
57.2402,65.7887
57.2637,65.8027
57.3507,65.8366
57.4361,65.8741
57.4626,65.8808
57.4699,65.8831
57.4954,65.8931
57.5867,65.9122
57.6772,65.9351
57.6772,65.9351
57.6772,65.9351
57.7044,65.9374
57.7120,65.9385
57.7247,65.9411
57.7388,65.9441
57.8320,65.9479
57.8629,65.9505
57.8940,65.9505
57.8982,65.9507
57.9599,65.9532
58.0261,65.9757
58.0647,66.0197
58.1083,66.1032
58.1083,66.1032
58.2369,66.2609
58.2854,66.3005
58.3946,66.3895
58.5750,66.4837
58.7706,66.5397
58.8900,66.5503
58.8900,66.5503
58.8900,66.5503
58.8900,66.5503
59.5956,66.5503
60.5300,66.5503
60.6494,66.5397
60.8450,66.4837
61.0254,66.3895
61.1831,66.2609
61.3117,66.1032
61.4059,65.9229
61.4619,65.7272
61.4725,65.6079
61.4725,63.2921
61.4619,63.1728
61.4059,62.9771
61.3117,62.7968
61.2575,62.7303
61.1831,62.6391
61.0254,62.5105
61.0254,62.5105
61.0254,62.5105
60.8450,62.4163
60.8450,62.4163
60.8450,62.4163
60.7278,62.3827
60.6494,62.3603
60.6494,62.3603
60.6494,62.3603
60.5590,62.3523
60.5300,62.3497
60.5300,62.3497
60.5300,62.3497
59.8250,62.3497
58.8900,62.3497
58.8607,62.3523
58.7706,62.3603
58.5750,62.4163
58.3946,62.5105
58.3233,62.5686
58.2589,62.5957
58.1901,62.5837
58.1572,62.5602
57.8859,62.2889
57.8524,62.2276
57.8574,62.1579
57.8993,62.1019
57.9647,62.0775
57.9736,62.0772
58.1361,62.0772
58.1361,62.0772
58.2555,62.0666
58.4511,62.0106
58.6176,61.9237
58.6861,61.9101
58.7324,61.9237
58.8076,61.9629
58.8988,62.0106
58.9345,62.0208
59.0945,62.0666
59.2139,62.0772
59.2139,62.0772
59.2139,62.0772
59.2139,62.0772
59.9467,62.0772
60.9301,62.0772
61.0495,62.0666
61.2451,62.0106
61.4255,61.9164
61.5832,61.7878
61.7118,61.6301
61.8060,61.4497
61.8620,61.2541
61.8726,61.1347
61.8726,59.2153
61.8620,59.0959
61.8060,58.9003
61.7118,58.7199
61.6004,58.5833
61.5733,58.5189
61.5725,58.5049
61.5725,58.4686
61.5891,58.4066
61.6624,58.2797
61.6624,58.2797
61.6624,58.2797
61.7589,58.0338
61.8177,57.7762
61.8325,57.5788
61.8325,56.7712
61.8177,56.5738
61.7589,56.3162
61.6624,56.0703
61.5303,55.8415
61.3656,55.6350
61.3656,55.6350
61.3656,55.6350
61.1720,55.4553
60.9537,55.3065
60.9537,55.3065
60.9537,55.3065
60.9537,55.3065
60.9025,55.2818
60.8506,55.2350
60.8323,55.1676
60.8460,55.1134
60.9580,54.8955
61.0467,54.6356
61.0966,54.3657
61.1066,54.0913
61.0766,53.8184
61.0071,53.5528
60.8997,53.3001
60.7567,53.0658
60.6794,52.9729
60.6516,52.9088
60.6630,52.8398
60.6738,52.8214
60.8325,52.5996
60.9580,52.3555
61.0467,52.0956
61.0966,51.8257
61.1066,51.5513
61.0766,51.2784
61.0071,51.0128
60.8997,50.7601
60.7567,50.5258
60.6794,50.4329
60.6516,50.3688
60.6630,50.2998
60.6738,50.2814
60.8325,50.0596
60.9580,49.8155
61.0467,49.5556
61.0966,49.2857
61.1066,49.0113
61.0766,48.7384
61.0071,48.4728
60.8997,48.2201
60.7567,47.9858
60.6794,47.8929
60.6516,47.8288
60.6630,47.7598
60.6738,47.7414
60.8325,47.5196
60.9580,47.2755
61.0467,47.0156
61.0966,46.7457
61.1066,46.4713
61.0766,46.1984
61.0247,46.0003
61.0071,45.9328
61.0008,45.9180
60.8997,45.6801
60.7567,45.4458
60.6884,45.3637
60.5811,45.2348
60.5811,45.2348
60.5811,45.2348
60.4627,45.1287
60.3766,45.0516
60.3766,45.0516
60.3766,45.0516
60.1477,44.9001
59.8991,44.7836
59.7517,44.7392
59.6362,44.7045
59.5032,44.6849
59.3646,44.6645
58.7091,44.6645
58.7091,44.6645
58.5039,44.6795
58.5039,44.6795
58.2359,44.7392
58.2359,44.7392
57.9795,44.8373
57.7401,44.9717
57.7401,44.9717
57.6857,45.0136
57.6206,45.0390
57.6099,45.0395
56.1295,45.0395
56.1218,45.0390
56.0947,45.0356
56.0947,45.0356
56.0015,45.0395
55.9704,45.0395
55.9498,45.0412
55.9395,45.0421
55.8463,45.0459
55.8463,45.0459
55.8195,45.0515
55.8119,45.0526
55.7847,45.0549
55.7847,45.0549
55.7123,45.0732
55.6942,45.0778
55.6803,45.0807
55.6029,45.0969
55.6029,45.0970
55.5774,45.1069
55.5701,45.1092
55.5436,45.1159
55.5436,45.1159
55.4665,45.1498
55.3972,45.1587
55.3341,45.1287
55.2972,45.0693
55.2982,44.9997
55.3372,44.8733
55.3626,44.7045
55.3765,44.6121
55.3765,44.6121
55.3765,44.3479
55.3765,44.3479
55.3372,44.0867
55.3372,44.0867
55.2593,43.8343
55.2131,43.7383
55.1447,43.5963
55.1447,43.5963
55.1447,43.5963
55.1447,43.5963
54.9959,43.3780
54.9182,43.2943
54.8871,43.2318
54.8947,43.1624
54.9182,43.1257
54.9959,43.0420
55.1447,42.8237
55.2593,42.5857
55.3372,42.3333
55.3765,42.0721
55.3765,41.8079
55.3372,41.5467
55.2593,41.2943
55.2150,41.2022
55.1447,41.0563
55.1447,41.0563
55.1447,41.0563
55.1447,41.0563
54.9959,40.8380
54.9253,40.7619
54.8162,40.6444
54.7765,40.6127
54.6097,40.4797
54.4059,40.3620
54.3809,40.3476
54.3809,40.3476
54.1350,40.2511
54.1350,40.2511
53.8775,40.1923
53.6800,40.1775
53.6800,40.1775
52.8750,40.1775
52.8750,40.1775
52.6775,40.1923
52.6775,40.1923
52.4200,40.2511
52.4200,40.2511
52.1741,40.3476
52.1741,40.3476
51.9453,40.4797
51.7388,40.6444
51.5591,40.8380
51.4103,41.0563
51.4103,41.0563
51.2957,41.2943
51.2178,41.5467
51.2178,41.5467
51.1784,41.8079
51.1784,42.0721
51.2178,42.3333
51.2178,42.3333
51.2507,42.4400
51.2957,42.5857
51.2957,42.5857
51.4103,42.8237
51.4103,42.8237
51.4103,42.8237
51.4103,42.8237
51.5185,42.9824
51.5591,43.0420
51.6367,43.1257
51.6679,43.1882
51.6603,43.2576
51.6367,43.2943
51.5591,43.3780
51.4103,43.5963
51.4103,43.5963
51.2957,43.8343
51.2178,44.0867
51.2178,44.0867
51.1784,44.3479
51.1784,44.6121
51.2178,44.8733
51.2178,44.8733
51.2957,45.1257
51.4103,45.3637
51.4103,45.3637
51.4103,45.3637
51.4103,45.3637
51.5183,45.5221
51.5591,45.5820
51.6367,45.6657
51.6679,45.7282
51.6603,45.7976
51.6367,45.8343
51.5591,45.9180
51.4103,46.1363
51.4103,46.1363
51.2957,46.3743
51.2178,46.6267
51.2178,46.6267
51.1784,46.8879
51.1784,47.1521
51.2178,47.4133
51.2178,47.4133
51.2957,47.6657
51.4103,47.9037
51.4103,47.9037
51.4103,47.9037
51.4103,47.9037
51.5216,48.0670
51.5591,48.1220
51.6367,48.2057
51.6679,48.2682
51.6603,48.3376
51.6367,48.3743
51.5591,48.4580
51.4103,48.6763
51.4103,48.6763
51.2957,48.9143
51.2178,49.1667
51.2178,49.1667
51.1784,49.4279
51.1784,49.6921
51.2178,49.9533
51.2178,49.9533
51.2957,50.2057
51.4103,50.4437
51.4103,50.4437
51.4103,50.4437
51.4103,50.4437
51.5591,50.6620
51.5591,50.6620
51.6367,50.7457
51.6679,50.8082
51.6603,50.8776
51.6367,50.9143
51.5591,50.9980
51.4103,51.2163
51.4103,51.2163
51.2957,51.4543
51.2178,51.7067
51.2178,51.7067
51.1784,51.9679
51.1784,52.2321
51.2178,52.4933
51.2178,52.4933
51.2957,52.7457
51.4103,52.9837
51.4103,52.9837
51.4103,52.9837
51.4103,52.9837
51.5591,53.2020
51.5591,53.2020
51.6367,53.2857
51.6679,53.3482
51.6603,53.4176
51.6367,53.4543
51.5591,53.5380
51.4103,53.7563
51.4103,53.7563
51.2957,53.9943
51.2178,54.2467
51.2178,54.2467
51.1784,54.5079
51.1784,54.7721
51.2178,55.0333
51.2178,55.0333
51.2957,55.2857
51.4103,55.5237
51.4103,55.5237
51.4103,55.5237
51.4103,55.5237
51.5591,55.7420
51.5591,55.7420
51.6367,55.8257
51.6679,55.8882
51.6603,55.9576
51.6367,55.9943
51.5591,56.0780
51.4103,56.2963
51.4103,56.2963
51.2957,56.5343
51.2178,56.7867
51.2178,56.7867
51.1784,57.0479
51.1784,57.3121
51.2178,57.5733
51.2178,57.5733
51.2957,57.8257
51.4103,58.0637
51.4103,58.0637
51.4103,58.0637
51.4103,58.0637
51.5575,58.2797
51.5591,58.2820
51.6367,58.3657
51.6679,58.4282
51.6603,58.4976
51.6367,58.5343
51.5591,58.6180
51.4103,58.8363
51.4103,58.8363
51.2957,59.0743
51.2178,59.3267
51.2178,59.3267
51.1784,59.5879
51.1784,59.8521
51.2178,60.1133
51.2178,60.1133
51.2957,60.3657
51.4103,60.6037
51.4103,60.6037
51.4103,60.6037
51.4103,60.6037
51.5591,60.8220
51.5591,60.8220
51.6367,60.9057
51.6679,60.9682
51.6603,61.0376
51.6367,61.0743
51.5591,61.1580
51.4103,61.3763
51.4103,61.3763
51.2957,61.6143
51.2178,61.8667
51.2178,61.8667
51.1784,62.1279
51.1784,62.3921
51.2178,62.6533
51.2178,62.6533
51.2621,62.7968
51.2916,62.8925
51.2957,62.9057
51.3997,63.1217
51.4110,63.1906
51.3833,63.2548
51.3253,63.2937
51.2880,63.2995
45.3545,63.2995
45.3468,63.2990
45.3197,63.2956
45.3197,63.2956
45.2265,63.2995
45.1954,63.2995
45.1645,63.3021
45.0713,63.3059
45.0713,63.3059
45.0445,63.3115
45.0369,63.3126
45.0097,63.3149
45.0097,63.3149
44.9373,63.3332
44.9192,63.3378
44.9053,63.3407
44.8279,63.3569
44.8279,63.3570
44.8024,63.3669
44.7951,63.3692
44.7686,63.3759
44.7686,63.3759
44.6832,63.4134
44.5962,63.4473
44.5727,63.4613
44.5659,63.4649
44.5409,63.4758
44.5409,63.4758
44.4628,63.5269
44.3826,63.5746
44.3618,63.5923
44.3556,63.5969
44.3327,63.6118
44.3327,63.6118
44.2641,63.6750
44.2404,63.6951
44.2257,63.7097
44.2184,63.7170
44.2013,63.7328
44.1935,63.7400
44.1308,63.7709
44.0614,63.7631
44.0072,63.7189
43.9856,63.6525
43.9855,63.6488
43.9855,48.2570
43.9860,48.2493
43.9873,48.2389
43.9894,48.2222
43.9855,48.1290
43.9855,48.0979
43.9829,48.0670
43.9791,47.9738
43.9735,47.9470
43.9724,47.9394
43.9701,47.9122
43.9472,47.8217
43.9280,47.7304
43.9181,47.7049
43.9158,47.6976
43.9091,47.6711
43.9091,47.6711
43.8990,47.6481
43.8716,47.5857
43.8377,47.4987
43.8377,47.4987
43.8237,47.4752
43.8201,47.4684
43.8092,47.4434
43.8092,47.4434
43.7895,47.4133
43.7581,47.3653
43.7104,47.2851
43.7104,47.2851
43.6927,47.2643
43.6881,47.2581
43.6732,47.2352
43.6732,47.2352
43.6732,47.2352
43.6100,47.1666
43.5977,47.1521
43.5899,47.1429
43.5680,47.1209
43.5047,47.0523
43.5047,47.0523
43.4832,47.0355
43.4774,47.0304
42.4746,46.0276
42.4695,46.0218
42.4527,46.0003
42.3841,45.9370
42.3621,45.9151
42.3384,45.8950
42.2698,45.8318
42.2698,45.8318
42.2469,45.8169
42.2407,45.8123
42.2199,45.7946
42.1397,45.7469
42.0616,45.6958
42.0616,45.6958
42.0366,45.6849
42.0297,45.6813
42.0063,45.6673
41.9193,45.6334
41.9193,45.6334
41.8339,45.5959
41.8339,45.5959
41.8339,45.5959
41.8074,45.5892
41.8001,45.5869
41.7836,45.5805
41.7746,45.5770
41.6833,45.5578
41.6833,45.5578
41.5928,45.5349
41.5656,45.5326
41.5580,45.5315
41.5380,45.5273
41.5312,45.5259
41.5312,45.5259
41.4380,45.5221
41.4071,45.5195
41.4071,45.5195
41.3760,45.5195
41.2828,45.5156
41.2828,45.5156
41.2557,45.5190
41.2480,45.5195
39.3346,45.5195
39.2726,45.5029
39.1422,45.4276
39.1422,45.4276
38.8963,45.3311
38.8963,45.3311
38.6387,45.2723
38.4413,45.2575
38.4413,45.2575
37.6337,45.2575
37.6337,45.2575
37.4363,45.2723
37.4363,45.2723
37.1787,45.3311
37.1787,45.3311
36.9328,45.4276
36.9328,45.4276
36.7040,45.5597
36.4975,45.7244
36.3178,45.9180
36.1690,46.1363
36.1690,46.1363
36.0544,46.3743
35.9766,46.6267
35.9765,46.6267
35.9372,46.8879
35.9372,47.1521
35.9765,47.4133
35.9766,47.4133
36.0544,47.6657
36.1690,47.9037
36.1690,47.9037
36.1690,47.9037
36.1690,47.9037
36.2803,48.0670
36.3178,48.1220
36.3955,48.2057
36.4266,48.2682
36.4191,48.3376
36.3955,48.3743
36.3178,48.4580
36.1690,48.6763
36.1690,48.6763
36.0544,48.9143
35.9766,49.1667
35.9765,49.1667
35.9372,49.4279
35.9372,49.6921
35.9765,49.9533
35.9766,49.9533
36.0544,50.2057
36.1690,50.4437
36.1690,50.4437
36.1690,50.4437
36.1690,50.4437
36.3178,50.6620
36.3955,50.7457
36.4266,50.8082
36.4191,50.8776
36.3955,50.9143
36.3178,50.9980
36.1690,51.2163
36.1690,51.2163
36.0544,51.4543
35.9766,51.7067
35.9765,51.7067
35.9372,51.9679
35.9372,52.2321
35.9765,52.4933
35.9766,52.4933
36.0544,52.7457
36.1690,52.9837
36.1690,52.9837
36.1690,52.9837
36.1690,52.9837
36.3178,53.2020
36.3955,53.2857
36.4266,53.3482
36.4191,53.4176
36.3955,53.4543
36.3178,53.5380
36.1690,53.7563
36.1690,53.7563
36.0544,53.9943
35.9766,54.2467
35.9765,54.2467
35.9372,54.5079
35.9372,54.7721
35.9765,55.0333
35.9766,55.0333
36.0544,55.2857
36.1690,55.5237
36.1690,55.5237
36.1690,55.5237
36.1690,55.5237
36.3178,55.7420
36.3955,55.8257
36.4266,55.8882
36.4191,55.9576
36.3955,55.9943
36.3178,56.0780
36.1690,56.2963
36.1690,56.2963
36.0544,56.5343
35.9766,56.7867
35.9765,56.7867
35.9372,57.0479
35.9372,57.3121
35.9765,57.5733
35.9766,57.5733
36.0544,57.8257
36.1690,58.0637
36.1690,58.0637
36.1690,58.0637
36.1690,58.0637
36.3163,58.2797
36.3178,58.2820
36.3955,58.3657
36.4266,58.4282
36.4191,58.4976
36.3955,58.5343
36.3178,58.6180
36.1690,58.8363
36.1690,58.8363
36.0544,59.0743
35.9766,59.3267
35.9765,59.3267
35.9372,59.5879
35.9372,59.8521
35.9765,60.1133
35.9766,60.1133
36.0544,60.3657
36.1690,60.6037
36.1690,60.6037
36.1690,60.6037
36.1690,60.6037
36.3178,60.8220
36.3955,60.9057
36.4266,60.9682
36.4191,61.0376
36.3955,61.0743
36.3178,61.1580
36.1690,61.3763
36.1690,61.3763
36.0544,61.6143
35.9766,61.8667
35.9765,61.8667
35.9372,62.1279
35.9372,62.3921
35.9765,62.6533
35.9766,62.6533
36.0208,62.7968
36.0503,62.8925
36.0544,62.9057
36.1690,63.1437
36.1690,63.1437
36.1690,63.1437
36.1690,63.1437
36.2770,63.3021
36.3178,63.3620
36.3955,63.4457
36.4266,63.5082
36.4191,63.5776
36.3955,63.6143
36.3178,63.6980
36.1690,63.9163
36.1690,63.9163
36.0544,64.1543
35.9766,64.4067
35.9765,64.4067
35.9372,64.6679
35.9372,64.9321
35.9765,65.1933
35.9766,65.1933
36.0544,65.4457
36.1690,65.6837
36.1690,65.6837
36.1690,65.6837
36.1690,65.6837
36.2988,65.8741
36.3178,65.9020
36.3955,65.9857
36.4266,66.0482
36.4191,66.1176
36.3955,66.1543
36.3178,66.2380
36.1690,66.4563
36.1690,66.4563
36.0544,66.6943
35.9766,66.9467
35.9765,66.9467
35.9372,67.2079
35.9372,67.4721
35.9765,67.7333
35.9766,67.7333
36.0544,67.9857
36.1690,68.2237
36.1690,68.2237
36.1690,68.2237
36.1690,68.2237
36.3178,68.4420
36.3178,68.4420
36.3955,68.5257
36.4266,68.5882
36.4191,68.6576
36.3955,68.6943
36.3178,68.7780
36.1690,68.9963
36.1690,68.9963
36.0544,69.2343
35.9766,69.4867
35.9765,69.4867
35.9372,69.7479
35.9372,70.0121
35.9765,70.2733
35.9766,70.2733
36.0544,70.5257
36.1690,70.7637
36.1690,70.7637
36.1690,70.7637
36.1690,70.7637
36.3178,70.9820
36.3178,70.9820
36.3955,71.0657
36.4266,71.1282
36.4191,71.1976
36.3955,71.2343
36.3178,71.3180
36.1690,71.5363
36.1690,71.5363
36.0544,71.7743
35.9766,72.0267
35.9765,72.0267
35.9372,72.2879
35.9372,72.5521
35.9765,72.8133
35.9766,72.8133
36.0544,73.0657
36.1690,73.3037
36.1690,73.3037
36.1690,73.3037
36.1690,73.3037
36.3178,73.5220
36.3178,73.5220
36.4975,73.7156
36.4975,73.7156
36.4975,73.7156
36.7040,73.8803
36.9328,74.0124
37.1787,74.1089
37.1787,74.1089
37.4363,74.1677
37.6337,74.1825
37.6337,74.1825
38.4413,74.1825
38.6105,74.1698
38.6387,74.1677
38.8963,74.1089
39.1422,74.0124
39.3710,73.8803
39.5775,73.7156
39.7572,73.5220
39.9060,73.3037
40.0206,73.0657
40.0984,72.8133
40.1378,72.5521
40.1378,72.2879
40.0984,72.0267
40.0206,71.7743
40.0086,71.7493
39.9060,71.5363
39.9060,71.5363
39.9060,71.5363
39.9060,71.5363
39.7572,71.3180
39.6795,71.2343
39.6484,71.1718
39.6559,71.1024
39.6795,71.0657
39.7572,70.9820
39.9060,70.7637
40.0206,70.5257
40.0984,70.2733
40.1378,70.0121
40.1378,69.7479
40.0984,69.4867
40.0206,69.2343
40.0086,69.2093
39.9060,68.9963
39.9060,68.9963
39.9060,68.9963
39.9060,68.9963
39.7572,68.7780
39.6795,68.6943
39.6484,68.6318
39.6559,68.5624
39.6795,68.5257
39.7572,68.4420
39.9060,68.2237
40.0206,67.9857
40.0984,67.7333
40.1378,67.4721
40.1378,67.2079
40.0984,66.9467
40.0206,66.6943
40.0086,66.6693
39.9060,66.4563
39.9060,66.4563
39.9060,66.4563
39.9060,66.4563
39.7572,66.2380
39.6795,66.1543
39.6484,66.0918
39.6559,66.0224
39.6795,65.9857
39.7572,65.9020
39.9060,65.6837
40.0206,65.4457
40.0984,65.1933
40.1199,65.0512
40.1378,64.9321
40.1378,64.9321
40.1378,64.6679
40.1378,64.6679
40.0984,64.4067
40.0984,64.4067
40.0579,64.2754
40.0206,64.1543
39.9204,63.9462
39.9060,63.9163
39.9060,63.9163
39.9060,63.9163
39.9060,63.9163
39.7572,63.6980
39.6795,63.6143
39.6484,63.5518
39.6559,63.4824
39.6795,63.4457
39.7572,63.3620
39.9060,63.1437
40.0206,62.9057
40.0984,62.6533
40.1093,62.5815
40.1378,62.3921
40.1378,62.3921
40.1378,62.1279
40.1378,62.1279
40.0984,61.8667
40.0984,61.8667
40.0206,61.6143
39.9414,61.4497
39.9060,61.3763
39.9060,61.3763
39.9060,61.3763
39.9060,61.3763
39.7572,61.1580
39.6795,61.0743
39.6484,61.0118
39.6559,60.9424
39.6795,60.9057
39.7572,60.8220
39.9060,60.6037
40.0206,60.3657
40.0984,60.1133
40.1378,59.8521
40.1378,59.5879
40.0984,59.3267
40.0206,59.0743
39.9368,58.9003
39.9060,58.8363
39.9060,58.8363
39.9060,58.8363
39.9060,58.8363
39.7572,58.6180
39.6795,58.5343
39.6484,58.4718
39.6559,58.4024
39.6795,58.3657
39.7572,58.2820
39.9060,58.0637
40.0206,57.8257
40.0984,57.5733
40.1378,57.3121
40.1378,57.0479
40.0984,56.7867
40.0206,56.5343
39.9156,56.3162
39.9060,56.2963
39.9060,56.2963
39.9060,56.2963
39.9060,56.2963
39.7572,56.0780
39.6795,55.9943
39.6484,55.9318
39.6559,55.8624
39.6795,55.8257
39.7572,55.7420
39.9060,55.5237
40.0206,55.2857
40.0984,55.0333
40.1378,54.7721
40.1378,54.5079
40.1164,54.3657
40.0984,54.2467
40.0984,54.2467
40.0206,53.9943
39.9359,53.8184
39.9060,53.7563
39.9060,53.7563
39.9060,53.7563
39.9060,53.7563
39.7572,53.5380
39.6795,53.4543
39.6484,53.3918
39.6559,53.3224
39.6795,53.2857
39.7572,53.2020
39.9060,52.9837
40.0206,52.7457
40.0984,52.4933
40.1378,52.2321
40.1378,51.9679
40.1164,51.8257
40.0984,51.7067
40.0984,51.7067
40.0206,51.4543
39.9359,51.2784
39.9060,51.2163
39.9060,51.2163
39.9060,51.2163
39.9060,51.2163
39.7572,50.9980
39.6795,50.9143
39.6484,50.8518
39.6559,50.7824
39.6795,50.7457
39.7572,50.6620
39.9060,50.4437
40.0206,50.2057
40.0984,49.9533
40.1378,49.6921
40.1378,49.4279
40.1164,49.2857
40.0984,49.1667
40.0984,49.1667
40.0206,48.9143
39.9687,48.8065
39.9166,48.6983
39.9052,48.6294
39.9329,48.5652
39.9909,48.5263
40.0283,48.5205
40.6721,48.5205
40.7391,48.5402
40.7598,48.5568
40.9482,48.7452
40.9817,48.8065
40.9845,48.8329
40.9845,77.3316
40.9648,77.3987
40.9639,77.4000
40.8451,77.5796
40.7286,77.8282
40.6495,78.0911
40.6495,78.0911
40.6293,78.2280
40.6095,78.3627
40.6095,78.3627
40.6095,79.0186
40.6245,79.2238
40.6245,79.2238
40.6842,79.4918
40.6842,79.4918
40.7528,79.6711
40.7823,79.7482
40.9167,79.9876
40.9167,79.9876
41.0176,80.1184
41.0844,80.2049
41.2821,80.3955
41.4461,80.5128
41.4976,80.5497
41.5407,80.6047
41.5472,80.6742
41.5150,80.7363
41.4544,80.7711
41.4255,80.7745
35.3145,80.7745
35.2475,80.7548
35.2017,80.7020
35.1905,80.6505
35.1905,43.7997
35.2102,43.7327
35.2571,43.6898
35.2611,43.6877
35.3434,43.6447
35.5011,43.5161
35.6297,43.3584
35.7239,43.1780
35.7799,42.9824
35.7905,42.8630
35.7905,42.5528
35.8102,42.4858
35.8630,42.4400
35.9321,42.4301
35.9957,42.4591
36.0330,42.5163
36.0544,42.5857
36.0544,42.5857
36.1690,42.8237
36.1690,42.8237
36.1690,42.8237
36.1690,42.8237
36.2772,42.9824
36.3178,43.0420
36.4975,43.2356
36.4975,43.2356
36.4975,43.2356
36.7040,43.4003
36.9328,43.5324
37.1787,43.6289
37.2478,43.6447
37.4363,43.6877
37.6337,43.7025
37.6337,43.7025
38.4413,43.7025
38.6109,43.6898
38.6387,43.6877
38.8963,43.6289
39.1422,43.5324
39.3710,43.4003
39.5775,43.2356
39.7572,43.0420
39.9060,42.8237
40.0206,42.5857
40.0984,42.3333
40.1378,42.0721
40.1378,41.8079
40.0984,41.5467
40.0206,41.2943
39.9762,41.2022
39.9060,41.0563
39.9060,41.0563
39.9060,41.0563
39.9060,41.0563
39.7572,40.8380
39.6795,40.7543
39.6484,40.6918
39.6559,40.6224
39.6795,40.5857
39.7572,40.5020
39.9060,40.2837
40.0206,40.0457
40.0984,39.7933
40.1057,39.7453
40.1378,39.5321
40.1378,39.5321
40.1378,39.2679
40.1378,39.2679
40.0984,39.0067
40.0984,39.0067
40.0206,38.7543
40.0086,38.7293
39.9060,38.5163
39.9060,38.5163
39.9060,38.5163
39.9060,38.5163
39.7572,38.2980
39.6795,38.2143
39.6484,38.1518
39.6559,38.0824
39.6795,38.0457
39.7572,37.9620
39.9060,37.7437
40.0206,37.5057
40.0984,37.2533
40.1078,37.1916
40.1378,36.9921
40.1378,36.9921
40.1378,36.7279
40.1378,36.7279
40.0984,36.4667
40.0984,36.4667
40.0206,36.2143
40.0086,36.1893
39.9060,35.9763
39.9060,35.9763
39.9060,35.9763
39.9060,35.9763
39.7572,35.7580
39.7471,35.7472
39.5775,35.5644
39.4652,35.4748
39.3710,35.3997
39.1905,35.2955
39.1422,35.2676
39.1422,35.2676
38.8963,35.1711
38.8963,35.1711
38.6387,35.1123
38.4413,35.0975
38.4413,35.0975
37.6337,35.0975
37.6337,35.0975
37.4363,35.1123
37.4363,35.1123
37.1787,35.1711
37.1787,35.1711
36.9328,35.2676
36.9328,35.2676
36.8178,35.3340
36.8077,35.3398
36.8024,35.3429
36.7404,35.3595
35.0985,35.3595
35.0315,35.3398
35.0301,35.3389
34.8354,35.2101
34.5868,35.0936
34.4394,35.0492
34.3239,35.0145
34.1909,34.9949
34.0523,34.9745
33.3965,34.9745
33.3964,34.9745
33.1912,34.9895
33.1912,34.9895
32.9232,35.0492
32.9232,35.0492
32.6668,35.1473
32.4274,35.2817
32.4274,35.2817
32.2101,35.4494
32.2101,35.4494
32.0195,35.6471
32.0195,35.6471
31.8598,35.8704
31.8598,35.8704
31.7343,36.1145
31.7343,36.1145
31.6456,36.3743
31.6456,36.3744
31.5958,36.6443
31.5958,36.6443
31.5857,36.9187
31.6158,37.1916
31.6158,37.1916
31.6852,37.4572
31.6852,37.4572
31.7926,37.7099
31.9356,37.9442
32.0129,38.0371
32.0407,38.1012
32.0294,38.1702
32.0185,38.1886
31.8598,38.4104
31.8598,38.4104
31.7343,38.6545
31.7343,38.6545
31.6456,38.9143
31.6456,38.9144
31.5958,39.1843
31.5958,39.1843
31.5857,39.4587
31.6158,39.7316
31.6158,39.7316
31.6852,39.9972
31.7926,40.2498
31.8166,40.2893
31.8347,40.3567
31.8135,40.4233
31.8069,40.4322
31.7503,40.5016
31.6561,40.6820
31.6001,40.8776
31.6001,40.8776
31.5990,40.8905
31.5895,40.9970
31.5895,42.8630
31.5918,42.8884
31.6001,42.9824
31.6561,43.1780
31.6561,43.1780
31.6561,43.1780
31.7503,43.3584
31.7503,43.3584
31.8789,43.5161
31.9728,43.5927
32.0366,43.6447
32.1229,43.6898
32.1732,43.7383
32.1895,43.7997
32.1895,81.7680
32.1890,81.7757
32.1856,81.8028
32.1895,81.8960
32.1895,81.9271
32.1921,81.9580
32.1959,82.0512
32.2015,82.0780
32.2026,82.0856
32.2049,82.1128
32.2049,82.1128
32.2049,82.1128
32.2278,82.2033
32.2470,82.2946
32.2470,82.2946
32.2569,82.3201
32.2592,82.3274
32.2659,82.3539
32.3034,82.4393
32.3373,82.5263
32.3513,82.5498
32.3549,82.5566
32.3658,82.5816
32.3658,82.5816
32.4169,82.6597
32.4646,82.7399
32.4823,82.7607
32.4869,82.7669
32.5018,82.7898
32.5018,82.7898
32.5650,82.8584
32.5851,82.8821
32.6070,82.9041
32.6703,82.9727
32.6918,82.9895
32.6976,82.9946
32.9704,83.2674
32.9755,83.2732
32.9923,83.2947
33.0609,83.3580
33.0829,83.3799
33.1066,83.4000
33.1752,83.4632
33.1981,83.4781
33.2043,83.4827
33.2251,83.5004
33.2251,83.5004
33.2557,83.5186
33.3053,83.5481
33.3776,83.5954
33.3834,83.5992
33.4084,83.6101
33.4084,83.6101
33.4152,83.6137
33.4387,83.6277
33.5257,83.6616
33.6111,83.6991
33.6376,83.7058
33.6449,83.7081
33.6704,83.7180
33.7617,83.7372
33.8522,83.7601
33.8522,83.7601
33.8522,83.7601
33.8794,83.7624
33.8870,83.7635
33.8997,83.7661
33.9138,83.7691
34.0070,83.7729
34.0379,83.7755
34.0379,83.7755
34.0690,83.7755
34.1622,83.7794
34.1893,83.7760
34.1970,83.7755
47.6629,83.7755
47.6940,83.7755
47.7872,83.7794
47.8039,83.7773
47.8143,83.7760
47.8220,83.7755
64.4280,83.7755
64.4357,83.7760
64.4628,83.7794
64.5560,83.7755
64.5871,83.7755
64.6180,83.7729
64.7112,83.7691
64.7380,83.7635
64.7456,83.7624
64.7728,83.7601
64.7728,83.7601
64.7728,83.7601
64.7728,83.7601
64.8633,83.7372
64.9546,83.7180
64.9801,83.7081
64.9874,83.7058
65.0139,83.6991
65.0993,83.6616
65.1863,83.6277
65.2098,83.6137
65.2166,83.6101
65.2416,83.5992
65.3197,83.5481
65.3999,83.5004
65.4208,83.4827
65.4269,83.4781
65.4498,83.4632
65.5184,83.4000
65.5421,83.3799
65.5641,83.3579
65.6327,83.2947
65.6495,83.2732
65.6546,83.2674
70.7728,78.1492
70.8341,78.1157
70.9038,78.1207
70.9598,78.1626
70.9842,78.2280
70.9845,78.2369
70.9845,87.8755
70.9648,87.9425
70.9120,87.9883
70.8605,87.9995
31.1095,87.9995
31.0425,87.9798
30.9967,87.9270
30.9855,87.8755
30.9855,23.1245
31.0052,23.0575
31.0580,23.0117
31.1095,23.0005
56.7972,23.0005
Z" /> 
</g>
</g>
</g>
<g style="fill:#FFFFFF; fill-opacity:1.0000; 
stroke:#FFFFFF; stroke-width:0.0000; stroke-opacity:1; 
stroke-linecap:round; stroke-linejoin:round;">
<circle cx="59.7100" cy="64.4500" r="0.1750" /> 
</g>
<g style="fill:#FFFFFF; fill-opacity:1.0000; 
stroke:#FFFFFF; stroke-width:0.0212; stroke-opacity:1; 
stroke-linecap:round; stroke-linejoin:round;">
</g>
<g style="fill:#FFFFFF; fill-opacity:1.0000; 
stroke:#FFFFFF; stroke-width:0.0000; stroke-opacity:1; 
stroke-linecap:round; stroke-linejoin:round;">
<circle cx="62.2500" cy="64.4500" r="0.1750" /> 
</g>
<g style="fill:#FFFFFF; fill-opacity:1.0000; 
stroke:#FFFFFF; stroke-width:0.0212; stroke-opacity:1; 
stroke-linecap:round; stroke-linejoin:round;">
</g>
<g style="fill:#FFFFFF; fill-opacity:1.0000; 
stroke:#FFFFFF; stroke-width:0.0000; stroke-opacity:1; 
stroke-linecap:round; stroke-linejoin:round;">
<circle cx="64.7900" cy="64.4500" r="0.1750" /> 
</g>
<g style="fill:#FFFFFF; fill-opacity:1.0000; 
stroke:#FFFFFF; stroke-width:0.0212; stroke-opacity:1; 
stroke-linecap:round; stroke-linejoin:round;">
</g>
<g style="fill:#FFFFFF; fill-opacity:1.0000; 
stroke:#FFFFFF; stroke-width:0.0000; stroke-opacity:1; 
stroke-linecap:round; stroke-linejoin:round;">
<circle cx="48.6250" cy="26.9500" r="0.1750" /> 
</g>
<g style="fill:#FFFFFF; fill-opacity:1.0000; 
stroke:#FFFFFF; stroke-width:0.0212; stroke-opacity:1; 
stroke-linecap:round; stroke-linejoin:round;">
</g>
<g style="fill:#FFFFFF; fill-opacity:1.0000; 
stroke:#FFFFFF; stroke-width:0.0000; stroke-opacity:1; 
stroke-linecap:round; stroke-linejoin:round;">
<circle cx="48.6250" cy="28.9500" r="0.1750" /> 
</g>
<g style="fill:#FFFFFF; fill-opacity:1.0000; 
stroke:#FFFFFF; stroke-width:0.0212; stroke-opacity:1; 
stroke-linecap:round; stroke-linejoin:round;">
</g>
<g style="fill:#FFFFFF; fill-opacity:1.0000; 
stroke:#FFFFFF; stroke-width:0.0000; stroke-opacity:1; 
stroke-linecap:round; stroke-linejoin:round;">
<circle cx="38.0375" cy="36.8600" r="0.1750" /> 
</g>
<g style="fill:#FFFFFF; fill-opacity:1.0000; 
stroke:#FFFFFF; stroke-width:0.0212; stroke-opacity:1; 
stroke-linecap:round; stroke-linejoin:round;">
</g>
<g style="fill:#FFFFFF; fill-opacity:1.0000; 
stroke:#FFFFFF; stroke-width:0.0000; stroke-opacity:1; 
stroke-linecap:round; stroke-linejoin:round;">
<circle cx="38.0375" cy="39.4000" r="0.1750" /> 
</g>
<g style="fill:#FFFFFF; fill-opacity:1.0000; 
stroke:#FFFFFF; stroke-width:0.0212; stroke-opacity:1; 
stroke-linecap:round; stroke-linejoin:round;">
</g>
<g style="fill:#FFFFFF; fill-opacity:1.0000; 
stroke:#FFFFFF; stroke-width:0.0000; stroke-opacity:1; 
stroke-linecap:round; stroke-linejoin:round;">
<circle cx="38.0375" cy="41.9400" r="0.1750" /> 
</g>
<g style="fill:#FFFFFF; fill-opacity:1.0000; 
stroke:#FFFFFF; stroke-width:0.0212; stroke-opacity:1; 
stroke-linecap:round; stroke-linejoin:round;">
</g>
<g style="fill:#FFFFFF; fill-opacity:1.0000; 
stroke:#FFFFFF; stroke-width:0.0000; stroke-opacity:1; 
stroke-linecap:round; stroke-linejoin:round;">
<circle cx="38.0375" cy="44.4800" r="0.1750" /> 
</g>
<g style="fill:#FFFFFF; fill-opacity:1.0000; 
stroke:#FFFFFF; stroke-width:0.0212; stroke-opacity:1; 
stroke-linecap:round; stroke-linejoin:round;">
</g>
<g style="fill:#FFFFFF; fill-opacity:1.0000; 
stroke:#FFFFFF; stroke-width:0.0000; stroke-opacity:1; 
stroke-linecap:round; stroke-linejoin:round;">
<circle cx="38.0375" cy="47.0200" r="0.1750" /> 
</g>
<g style="fill:#FFFFFF; fill-opacity:1.0000; 
stroke:#FFFFFF; stroke-width:0.0212; stroke-opacity:1; 
stroke-linecap:round; stroke-linejoin:round;">
</g>
<g style="fill:#FFFFFF; fill-opacity:1.0000; 
stroke:#FFFFFF; stroke-width:0.0000; stroke-opacity:1; 
stroke-linecap:round; stroke-linejoin:round;">
<circle cx="38.0375" cy="49.5600" r="0.1750" /> 
</g>
<g style="fill:#FFFFFF; fill-opacity:1.0000; 
stroke:#FFFFFF; stroke-width:0.0212; stroke-opacity:1; 
stroke-linecap:round; stroke-linejoin:round;">
</g>
<g style="fill:#FFFFFF; fill-opacity:1.0000; 
stroke:#FFFFFF; stroke-width:0.0000; stroke-opacity:1; 
stroke-linecap:round; stroke-linejoin:round;">
<circle cx="38.0375" cy="52.1000" r="0.1750" /> 
</g>
<g style="fill:#FFFFFF; fill-opacity:1.0000; 
stroke:#FFFFFF; stroke-width:0.0212; stroke-opacity:1; 
stroke-linecap:round; stroke-linejoin:round;">
</g>
<g style="fill:#FFFFFF; fill-opacity:1.0000; 
stroke:#FFFFFF; stroke-width:0.0000; stroke-opacity:1; 
stroke-linecap:round; stroke-linejoin:round;">
<circle cx="38.0375" cy="54.6400" r="0.1750" /> 
</g>
<g style="fill:#FFFFFF; fill-opacity:1.0000; 
stroke:#FFFFFF; stroke-width:0.0212; stroke-opacity:1; 
stroke-linecap:round; stroke-linejoin:round;">
</g>
<g style="fill:#FFFFFF; fill-opacity:1.0000; 
stroke:#FFFFFF; stroke-width:0.0000; stroke-opacity:1; 
stroke-linecap:round; stroke-linejoin:round;">
<circle cx="38.0375" cy="57.1800" r="0.1750" /> 
</g>
<g style="fill:#FFFFFF; fill-opacity:1.0000; 
stroke:#FFFFFF; stroke-width:0.0212; stroke-opacity:1; 
stroke-linecap:round; stroke-linejoin:round;">
</g>
<g style="fill:#FFFFFF; fill-opacity:1.0000; 
stroke:#FFFFFF; stroke-width:0.0000; stroke-opacity:1; 
stroke-linecap:round; stroke-linejoin:round;">
<circle cx="38.0375" cy="59.7200" r="0.1750" /> 
</g>
<g style="fill:#FFFFFF; fill-opacity:1.0000; 
stroke:#FFFFFF; stroke-width:0.0212; stroke-opacity:1; 
stroke-linecap:round; stroke-linejoin:round;">
</g>
<g style="fill:#FFFFFF; fill-opacity:1.0000; 
stroke:#FFFFFF; stroke-width:0.0000; stroke-opacity:1; 
stroke-linecap:round; stroke-linejoin:round;">
<circle cx="38.0375" cy="62.2600" r="0.1750" /> 
</g>
<g style="fill:#FFFFFF; fill-opacity:1.0000; 
stroke:#FFFFFF; stroke-width:0.0212; stroke-opacity:1; 
stroke-linecap:round; stroke-linejoin:round;">
</g>
<g style="fill:#FFFFFF; fill-opacity:1.0000; 
stroke:#FFFFFF; stroke-width:0.0000; stroke-opacity:1; 
stroke-linecap:round; stroke-linejoin:round;">
<circle cx="38.0375" cy="64.8000" r="0.1750" /> 
</g>
<g style="fill:#FFFFFF; fill-opacity:1.0000; 
stroke:#FFFFFF; stroke-width:0.0212; stroke-opacity:1; 
stroke-linecap:round; stroke-linejoin:round;">
</g>
<g style="fill:#FFFFFF; fill-opacity:1.0000; 
stroke:#FFFFFF; stroke-width:0.0000; stroke-opacity:1; 
stroke-linecap:round; stroke-linejoin:round;">
<circle cx="38.0375" cy="67.3400" r="0.1750" /> 
</g>
<g style="fill:#FFFFFF; fill-opacity:1.0000; 
stroke:#FFFFFF; stroke-width:0.0212; stroke-opacity:1; 
stroke-linecap:round; stroke-linejoin:round;">
</g>
<g style="fill:#FFFFFF; fill-opacity:1.0000; 
stroke:#FFFFFF; stroke-width:0.0000; stroke-opacity:1; 
stroke-linecap:round; stroke-linejoin:round;">
<circle cx="38.0375" cy="69.8800" r="0.1750" /> 
</g>
<g style="fill:#FFFFFF; fill-opacity:1.0000; 
stroke:#FFFFFF; stroke-width:0.0212; stroke-opacity:1; 
stroke-linecap:round; stroke-linejoin:round;">
</g>
<g style="fill:#FFFFFF; fill-opacity:1.0000; 
stroke:#FFFFFF; stroke-width:0.0000; stroke-opacity:1; 
stroke-linecap:round; stroke-linejoin:round;">
<circle cx="38.0375" cy="72.4200" r="0.1750" /> 
</g>
<g style="fill:#FFFFFF; fill-opacity:1.0000; 
stroke:#FFFFFF; stroke-width:0.0212; stroke-opacity:1; 
stroke-linecap:round; stroke-linejoin:round;">
</g>
<g style="fill:#FFFFFF; fill-opacity:1.0000; 
stroke:#FFFFFF; stroke-width:0.0000; stroke-opacity:1; 
stroke-linecap:round; stroke-linejoin:round;">
<circle cx="53.2775" cy="72.4200" r="0.1750" /> 
</g>
<g style="fill:#FFFFFF; fill-opacity:1.0000; 
stroke:#FFFFFF; stroke-width:0.0212; stroke-opacity:1; 
stroke-linecap:round; stroke-linejoin:round;">
</g>
<g style="fill:#FFFFFF; fill-opacity:1.0000; 
stroke:#FFFFFF; stroke-width:0.0000; stroke-opacity:1; 
stroke-linecap:round; stroke-linejoin:round;">
<circle cx="53.2775" cy="69.8800" r="0.1750" /> 
</g>
<g style="fill:#FFFFFF; fill-opacity:1.0000; 
stroke:#FFFFFF; stroke-width:0.0212; stroke-opacity:1; 
stroke-linecap:round; stroke-linejoin:round;">
</g>
<g style="fill:#FFFFFF; fill-opacity:1.0000; 
stroke:#FFFFFF; stroke-width:0.0000; stroke-opacity:1; 
stroke-linecap:round; stroke-linejoin:round;">
<circle cx="53.2775" cy="67.3400" r="0.1750" /> 
</g>
<g style="fill:#FFFFFF; fill-opacity:1.0000; 
stroke:#FFFFFF; stroke-width:0.0212; stroke-opacity:1; 
stroke-linecap:round; stroke-linejoin:round;">
</g>
<g style="fill:#FFFFFF; fill-opacity:1.0000; 
stroke:#FFFFFF; stroke-width:0.0000; stroke-opacity:1; 
stroke-linecap:round; stroke-linejoin:round;">
<circle cx="53.2775" cy="64.8000" r="0.1750" /> 
</g>
<g style="fill:#FFFFFF; fill-opacity:1.0000; 
stroke:#FFFFFF; stroke-width:0.0212; stroke-opacity:1; 
stroke-linecap:round; stroke-linejoin:round;">
</g>
<g style="fill:#FFFFFF; fill-opacity:1.0000; 
stroke:#FFFFFF; stroke-width:0.0000; stroke-opacity:1; 
stroke-linecap:round; stroke-linejoin:round;">
<circle cx="53.2775" cy="62.2600" r="0.1750" /> 
</g>
<g style="fill:#FFFFFF; fill-opacity:1.0000; 
stroke:#FFFFFF; stroke-width:0.0212; stroke-opacity:1; 
stroke-linecap:round; stroke-linejoin:round;">
</g>
<g style="fill:#FFFFFF; fill-opacity:1.0000; 
stroke:#FFFFFF; stroke-width:0.0000; stroke-opacity:1; 
stroke-linecap:round; stroke-linejoin:round;">
<circle cx="53.2775" cy="59.7200" r="0.1750" /> 
</g>
<g style="fill:#FFFFFF; fill-opacity:1.0000; 
stroke:#FFFFFF; stroke-width:0.0212; stroke-opacity:1; 
stroke-linecap:round; stroke-linejoin:round;">
</g>
<g style="fill:#FFFFFF; fill-opacity:1.0000; 
stroke:#FFFFFF; stroke-width:0.0000; stroke-opacity:1; 
stroke-linecap:round; stroke-linejoin:round;">
<circle cx="53.2775" cy="57.1800" r="0.1750" /> 
</g>
<g style="fill:#FFFFFF; fill-opacity:1.0000; 
stroke:#FFFFFF; stroke-width:0.0212; stroke-opacity:1; 
stroke-linecap:round; stroke-linejoin:round;">
</g>
<g style="fill:#FFFFFF; fill-opacity:1.0000; 
stroke:#FFFFFF; stroke-width:0.0000; stroke-opacity:1; 
stroke-linecap:round; stroke-linejoin:round;">
<circle cx="53.2775" cy="54.6400" r="0.1750" /> 
</g>
<g style="fill:#FFFFFF; fill-opacity:1.0000; 
stroke:#FFFFFF; stroke-width:0.0212; stroke-opacity:1; 
stroke-linecap:round; stroke-linejoin:round;">
</g>
<g style="fill:#FFFFFF; fill-opacity:1.0000; 
stroke:#FFFFFF; stroke-width:0.0000; stroke-opacity:1; 
stroke-linecap:round; stroke-linejoin:round;">
<circle cx="53.2775" cy="52.1000" r="0.1750" /> 
</g>
<g style="fill:#FFFFFF; fill-opacity:1.0000; 
stroke:#FFFFFF; stroke-width:0.0212; stroke-opacity:1; 
stroke-linecap:round; stroke-linejoin:round;">
</g>
<g style="fill:#FFFFFF; fill-opacity:1.0000; 
stroke:#FFFFFF; stroke-width:0.0000; stroke-opacity:1; 
stroke-linecap:round; stroke-linejoin:round;">
<circle cx="53.2775" cy="49.5600" r="0.1750" /> 
</g>
<g style="fill:#FFFFFF; fill-opacity:1.0000; 
stroke:#FFFFFF; stroke-width:0.0212; stroke-opacity:1; 
stroke-linecap:round; stroke-linejoin:round;">
</g>
<g style="fill:#FFFFFF; fill-opacity:1.0000; 
stroke:#FFFFFF; stroke-width:0.0000; stroke-opacity:1; 
stroke-linecap:round; stroke-linejoin:round;">
<circle cx="53.2775" cy="47.0200" r="0.1750" /> 
</g>
<g style="fill:#FFFFFF; fill-opacity:1.0000; 
stroke:#FFFFFF; stroke-width:0.0212; stroke-opacity:1; 
stroke-linecap:round; stroke-linejoin:round;">
</g>
<g style="fill:#FFFFFF; fill-opacity:1.0000; 
stroke:#FFFFFF; stroke-width:0.0000; stroke-opacity:1; 
stroke-linecap:round; stroke-linejoin:round;">
<circle cx="53.2775" cy="44.4800" r="0.1750" /> 
</g>
<g style="fill:#FFFFFF; fill-opacity:1.0000; 
stroke:#FFFFFF; stroke-width:0.0212; stroke-opacity:1; 
stroke-linecap:round; stroke-linejoin:round;">
</g>
<g style="fill:#FFFFFF; fill-opacity:1.0000; 
stroke:#FFFFFF; stroke-width:0.0000; stroke-opacity:1; 
stroke-linecap:round; stroke-linejoin:round;">
<circle cx="53.2775" cy="41.9400" r="0.1750" /> 
</g>
<g style="fill:#FFFFFF; fill-opacity:1.0000; 
stroke:#FFFFFF; stroke-width:0.0212; stroke-opacity:1; 
stroke-linecap:round; stroke-linejoin:round;">
</g>
<g style="fill:#FFFFFF; fill-opacity:1.0000; 
stroke:#FFFFFF; stroke-width:0.0000; stroke-opacity:1; 
stroke-linecap:round; stroke-linejoin:round;">
<circle cx="53.2775" cy="39.4000" r="0.1750" /> 
</g>
<g style="fill:#FFFFFF; fill-opacity:1.0000; 
stroke:#FFFFFF; stroke-width:0.0212; stroke-opacity:1; 
stroke-linecap:round; stroke-linejoin:round;">
</g>
<g style="fill:#FFFFFF; fill-opacity:1.0000; 
stroke:#FFFFFF; stroke-width:0.0000; stroke-opacity:1; 
stroke-linecap:round; stroke-linejoin:round;">
<circle cx="53.2775" cy="36.8600" r="0.1750" /> 
</g>
<g style="fill:#FFFFFF; fill-opacity:1.0000; 
stroke:#FFFFFF; stroke-width:0.0212; stroke-opacity:1; 
stroke-linecap:round; stroke-linejoin:round;">
</g>
<g style="fill:#FFFFFF; fill-opacity:1.0000; 
stroke:#FFFFFF; stroke-width:0.0000; stroke-opacity:1; 
stroke-linecap:round; stroke-linejoin:round;">
<circle cx="59.0025" cy="54.1600" r="0.1750" /> 
</g>
<g style="fill:#FFFFFF; fill-opacity:1.0000; 
stroke:#FFFFFF; stroke-width:0.0212; stroke-opacity:1; 
stroke-linecap:round; stroke-linejoin:round;">
</g>
<g style="fill:#FFFFFF; fill-opacity:1.0000; 
stroke:#FFFFFF; stroke-width:0.0000; stroke-opacity:1; 
stroke-linecap:round; stroke-linejoin:round;">
<circle cx="59.0025" cy="51.6200" r="0.1750" /> 
</g>
<g style="fill:#FFFFFF; fill-opacity:1.0000; 
stroke:#FFFFFF; stroke-width:0.0212; stroke-opacity:1; 
stroke-linecap:round; stroke-linejoin:round;">
</g>
<g style="fill:#FFFFFF; fill-opacity:1.0000; 
stroke:#FFFFFF; stroke-width:0.0000; stroke-opacity:1; 
stroke-linecap:round; stroke-linejoin:round;">
<circle cx="59.0025" cy="49.0800" r="0.1750" /> 
</g>
<g style="fill:#FFFFFF; fill-opacity:1.0000; 
stroke:#FFFFFF; stroke-width:0.0212; stroke-opacity:1; 
stroke-linecap:round; stroke-linejoin:round;">
</g>
<g style="fill:#FFFFFF; fill-opacity:1.0000; 
stroke:#FFFFFF; stroke-width:0.0000; stroke-opacity:1; 
stroke-linecap:round; stroke-linejoin:round;">
<circle cx="59.0025" cy="46.5400" r="0.1750" /> 
</g>
<g style="fill:#FFFFFF; fill-opacity:1.0000; 
stroke:#FFFFFF; stroke-width:0.0212; stroke-opacity:1; 
stroke-linecap:round; stroke-linejoin:round;">
</g>
<g style="fill:#FFFFFF; fill-opacity:1.0000; 
stroke:#FFFFFF; stroke-width:0.0000; stroke-opacity:1; 
stroke-linecap:round; stroke-linejoin:round;">
<circle cx="59.0025" cy="44.0000" r="0.1750" /> 
</g>
<g style="fill:#FFFFFF; fill-opacity:1.0000; 
stroke:#FFFFFF; stroke-width:0.0212; stroke-opacity:1; 
stroke-linecap:round; stroke-linejoin:round;">
</g>
<g style="fill:#FFFFFF; fill-opacity:1.0000; 
stroke:#FFFFFF; stroke-width:0.0000; stroke-opacity:1; 
stroke-linecap:round; stroke-linejoin:round;">
<circle cx="59.0025" cy="41.4600" r="0.1750" /> 
</g>
<g style="fill:#FFFFFF; fill-opacity:1.0000; 
stroke:#FFFFFF; stroke-width:0.0212; stroke-opacity:1; 
stroke-linecap:round; stroke-linejoin:round;">
</g>
<g style="fill:#FFFFFF; fill-opacity:1.0000; 
stroke:#FFFFFF; stroke-width:0.0000; stroke-opacity:1; 
stroke-linecap:round; stroke-linejoin:round;">
<circle cx="57.5300" cy="57.1750" r="0.1750" /> 
</g>
<g style="fill:#FFFFFF; fill-opacity:1.0000; 
stroke:#FFFFFF; stroke-width:0.0212; stroke-opacity:1; 
stroke-linecap:round; stroke-linejoin:round;">
</g>
<g style="fill:#FFFFFF; fill-opacity:1.0000; 
stroke:#FFFFFF; stroke-width:0.0000; stroke-opacity:1; 
stroke-linecap:round; stroke-linejoin:round;">
<circle cx="60.0700" cy="57.1750" r="0.1750" /> 
</g>
<g style="fill:#FFFFFF; fill-opacity:1.0000; 
stroke:#FFFFFF; stroke-width:0.0212; stroke-opacity:1; 
stroke-linecap:round; stroke-linejoin:round;">
</g>
<g style="fill:#FFFFFF; fill-opacity:1.0000; 
stroke:#FFFFFF; stroke-width:0.0000; stroke-opacity:1; 
stroke-linecap:round; stroke-linejoin:round;">
<circle cx="62.6100" cy="57.1750" r="0.1750" /> 
</g>
<g style="fill:#FFFFFF; fill-opacity:1.0000; 
stroke:#FFFFFF; stroke-width:0.0212; stroke-opacity:1; 
stroke-linecap:round; stroke-linejoin:round;">
</g>
<g style="fill:#FFFFFF; fill-opacity:1.0000; 
stroke:#FFFFFF; stroke-width:0.0000; stroke-opacity:1; 
stroke-linecap:round; stroke-linejoin:round;">
<circle cx="65.1500" cy="57.1750" r="0.1750" /> 
</g>
<g style="fill:#FFFFFF; fill-opacity:1.0000; 
stroke:#FFFFFF; stroke-width:0.0212; stroke-opacity:1; 
stroke-linecap:round; stroke-linejoin:round;">
</g>
<g style="fill:#FFFFFF; fill-opacity:1.0000; 
stroke:#FFFFFF; stroke-width:0.0000; stroke-opacity:1; 
stroke-linecap:round; stroke-linejoin:round;">
<circle cx="67.6900" cy="57.1750" r="0.1750" /> 
</g>
<g style="fill:#FFFFFF; fill-opacity:1.0000; 
stroke:#FFFFFF; stroke-width:0.0212; stroke-opacity:1; 
stroke-linecap:round; stroke-linejoin:round;">
</g>
<g style="fill:#FFFFFF; fill-opacity:1.0000; 
stroke:#FFFFFF; stroke-width:0.0000; stroke-opacity:1; 
stroke-linecap:round; stroke-linejoin:round;">
<circle cx="68.1000" cy="41.4000" r="0.1750" /> 
</g>
<g style="fill:#FFFFFF; fill-opacity:1.0000; 
stroke:#FFFFFF; stroke-width:0.0212; stroke-opacity:1; 
stroke-linecap:round; stroke-linejoin:round;">
</g>
<g style="fill:#FFFFFF; fill-opacity:1.0000; 
stroke:#FFFFFF; stroke-width:0.0000; stroke-opacity:1; 
stroke-linecap:round; stroke-linejoin:round;">
<circle cx="68.1000" cy="43.4000" r="0.1750" /> 
</g>
<g style="fill:#FFFFFF; fill-opacity:1.0000; 
stroke:#FFFFFF; stroke-width:0.0212; stroke-opacity:1; 
stroke-linecap:round; stroke-linejoin:round;">
</g>
<g style="fill:#FFFFFF; fill-opacity:1.0000; 
stroke:#FFFFFF; stroke-width:0.0000; stroke-opacity:1; 
stroke-linecap:round; stroke-linejoin:round;">
<circle cx="42.9500" cy="26.9750" r="0.1750" /> 
</g>
<g style="fill:#FFFFFF; fill-opacity:1.0000; 
stroke:#FFFFFF; stroke-width:0.0212; stroke-opacity:1; 
stroke-linecap:round; stroke-linejoin:round;">
</g>
<g style="fill:#FFFFFF; fill-opacity:1.0000; 
stroke:#FFFFFF; stroke-width:0.0000; stroke-opacity:1; 
stroke-linecap:round; stroke-linejoin:round;">
<circle cx="37.8700" cy="26.9750" r="0.1750" /> 
</g>
<g style="fill:#FFFFFF; fill-opacity:1.0000; 
stroke:#FFFFFF; stroke-width:0.0212; stroke-opacity:1; 
stroke-linecap:round; stroke-linejoin:round;">
</g>
<g style="fill:#FFFFFF; fill-opacity:1.0000; 
stroke:#FFFFFF; stroke-width:0.0000; stroke-opacity:1; 
stroke-linecap:round; stroke-linejoin:round;">
<circle cx="50.1050" cy="78.7250" r="0.1750" /> 
</g>
<g style="fill:#FFFFFF; fill-opacity:1.0000; 
stroke:#FFFFFF; stroke-width:0.0212; stroke-opacity:1; 
stroke-linecap:round; stroke-linejoin:round;">
</g>
<g style="fill:#FFFFFF; fill-opacity:1.0000; 
stroke:#FFFFFF; stroke-width:0.0000; stroke-opacity:1; 
stroke-linecap:round; stroke-linejoin:round;">
<circle cx="47.5650" cy="78.7250" r="0.1750" /> 
</g>
<g style="fill:#FFFFFF; fill-opacity:1.0000; 
stroke:#FFFFFF; stroke-width:0.0212; stroke-opacity:1; 
stroke-linecap:round; stroke-linejoin:round;">
</g>
<g style="fill:#FFFFFF; fill-opacity:1.0000; 
stroke:#FFFFFF; stroke-width:0.0000; stroke-opacity:1; 
stroke-linecap:round; stroke-linejoin:round;">
<circle cx="45.0250" cy="78.7250" r="0.1750" /> 
</g>
<g style="fill:#FFFFFF; fill-opacity:1.0000; 
stroke:#FFFFFF; stroke-width:0.0212; stroke-opacity:1; 
stroke-linecap:round; stroke-linejoin:round;">
</g>
<g style="fill:#FFFFFF; fill-opacity:1.0000; 
stroke:#FFFFFF; stroke-width:0.0000; stroke-opacity:1; 
stroke-linecap:round; stroke-linejoin:round;">
<circle cx="42.4850" cy="78.7250" r="0.1750" /> 
</g>
<g style="fill:#FFFFFF; fill-opacity:1.0000; 
stroke:#FFFFFF; stroke-width:0.0212; stroke-opacity:1; 
stroke-linecap:round; stroke-linejoin:round;">
</g>
<g style="fill:#FFFFFF; fill-opacity:1.0000; 
stroke:#FFFFFF; stroke-width:0.0000; stroke-opacity:1; 
stroke-linecap:round; stroke-linejoin:round;">
<circle cx="33.6900" cy="41.9300" r="0.1750" /> 
</g>
<g style="fill:#FFFFFF; fill-opacity:1.0000; 
stroke:#FFFFFF; stroke-width:0.0212; stroke-opacity:1; 
stroke-linecap:round; stroke-linejoin:round;">
</g>
<g style="fill:#FFFFFF; fill-opacity:1.0000; 
stroke:#FFFFFF; stroke-width:0.0000; stroke-opacity:1; 
stroke-linecap:round; stroke-linejoin:round;">
<circle cx="33.6900" cy="39.3900" r="0.1750" /> 
</g>
<g style="fill:#FFFFFF; fill-opacity:1.0000; 
stroke:#FFFFFF; stroke-width:0.0212; stroke-opacity:1; 
stroke-linecap:round; stroke-linejoin:round;">
</g>
<g style="fill:#FFFFFF; fill-opacity:1.0000; 
stroke:#FFFFFF; stroke-width:0.0000; stroke-opacity:1; 
stroke-linecap:round; stroke-linejoin:round;">
<circle cx="33.6900" cy="36.8500" r="0.1750" /> 
</g>
<g style="fill:#FFFFFF; fill-opacity:1.0000; 
stroke:#FFFFFF; stroke-width:0.0212; stroke-opacity:1; 
stroke-linecap:round; stroke-linejoin:round;">
</g>
<g style="fill:#FFFFFF; fill-opacity:1.0000; 
stroke:#FFFFFF; stroke-width:0.0000; stroke-opacity:1; 
stroke-linecap:round; stroke-linejoin:round;">
<circle cx="33.6900" cy="34.3100" r="0.1750" /> 
</g>
<g style="fill:#FFFFFF; fill-opacity:1.0000; 
stroke:#FFFFFF; stroke-width:0.0212; stroke-opacity:1; 
stroke-linecap:round; stroke-linejoin:round;">
</g>
<g style="fill:#000000; fill-opacity:1.0000; 
stroke:#000000; stroke-width:0.0212; stroke-opacity:1; 
stroke-linecap:round; stroke-linejoin:round;">
</g> 
</svg>
